<svg width="243" height="13" viewBox="0 0 243 13" fill="none" xmlns="http://www.w3.org/2000/svg">
<path d="M0.032 12L4.816 0.639999H6.192L10.784 12H9.136L8.032 9.168H2.832L1.68 12H0.032ZM3.392 7.792H7.504L5.488 2.624L3.392 7.792ZM11.995 12V0.16H13.531V3.984L13.467 5.68C13.7657 5.104 14.155 4.656 14.635 4.336C15.115 4.016 15.675 3.856 16.315 3.856C17.0083 3.856 17.5897 4.016 18.059 4.336C18.539 4.656 18.9017 5.09867 19.147 5.664C19.3923 6.22933 19.515 6.88 19.515 7.616C19.515 8.512 19.3443 9.30133 19.003 9.984C18.6723 10.656 18.2083 11.184 17.611 11.568C17.0243 11.952 16.3523 12.144 15.595 12.144C15.0723 12.144 14.6083 12.0267 14.203 11.792C13.7977 11.5573 13.5043 11.248 13.323 10.864L13.131 12H11.995ZM15.515 10.768C16.251 10.768 16.8377 10.4853 17.275 9.92C17.723 9.35467 17.947 8.61333 17.947 7.696C17.947 6.91733 17.7763 6.30933 17.435 5.872C17.0937 5.43467 16.635 5.216 16.059 5.216C15.579 5.216 15.147 5.35467 14.763 5.632C14.379 5.90933 14.075 6.29333 13.851 6.784C13.627 7.27467 13.515 7.84 13.515 8.48C13.515 9.19467 13.691 9.75467 14.043 10.16C14.4057 10.5653 14.8963 10.768 15.515 10.768ZM25.0333 3.856C26.1746 3.856 27.0759 4.21333 27.7373 4.928C28.3986 5.64267 28.7292 6.608 28.7292 7.824C28.7292 8.64533 28.5639 9.38133 28.2333 10.032C27.9026 10.6827 27.4386 11.2 26.8413 11.584C26.2546 11.9573 25.5666 12.144 24.7773 12.144C23.6039 12.144 22.6866 11.7867 22.0253 11.072C21.3746 10.3573 21.0493 9.38667 21.0493 8.16C21.0493 7.33867 21.2093 6.60267 21.5293 5.952C21.8599 5.30133 22.3239 4.78933 22.9213 4.416C23.5186 4.04267 24.2226 3.856 25.0333 3.856ZM24.7933 10.768C25.4973 10.768 26.0626 10.5013 26.4893 9.968C26.9266 9.424 27.1453 8.70933 27.1453 7.824C27.1453 6.992 26.9533 6.352 26.5693 5.904C26.1959 5.44533 25.6786 5.216 25.0173 5.216C24.2919 5.216 23.7106 5.488 23.2733 6.032C22.8359 6.576 22.6173 7.28533 22.6173 8.16C22.6173 8.992 22.8093 9.63733 23.1933 10.096C23.5773 10.544 24.1106 10.768 24.7933 10.768ZM33.0844 12.144C32.2417 12.144 31.5964 11.856 31.1484 11.28C30.711 10.6933 30.4977 9.888 30.5084 8.864L30.5564 3.984H32.0764L32.0284 8.704C32.0284 9.33333 32.1404 9.824 32.3644 10.176C32.599 10.528 32.967 10.704 33.4684 10.704C33.9697 10.704 34.4124 10.5013 34.7964 10.096C35.191 9.69067 35.5004 8.99733 35.7244 8.016C35.959 7.03467 36.0764 5.69067 36.0764 3.984H37.5484V12H36.0124L36.1084 9.776C35.799 10.5653 35.3777 11.1573 34.8444 11.552C34.3217 11.9467 33.735 12.144 33.0844 12.144ZM43.0395 12.144C42.0902 12.144 41.3648 11.8933 40.8635 11.392C40.3728 10.88 40.1328 10.2027 40.1435 9.36L40.2075 5.28H38.8155V3.984H40.2235L40.2395 2.32H41.7755L41.7435 3.984H44.4635V5.28H41.7275L41.6795 9.232C41.6795 9.70133 41.8022 10.08 42.0475 10.368C42.2928 10.6453 42.6715 10.784 43.1835 10.784C43.4288 10.784 43.6582 10.7573 43.8715 10.704C44.0848 10.64 44.3088 10.5173 44.5435 10.336L45.0075 11.536C44.7728 11.7387 44.4795 11.8933 44.1275 12C43.7862 12.096 43.4235 12.144 43.0395 12.144ZM85.332 12H83.748V0.639999H87.572C88.9587 0.639999 90.0253 0.927999 90.772 1.504C91.5293 2.08 91.908 2.92267 91.908 4.032C91.908 5.13067 91.5133 5.99467 90.724 6.624C89.9347 7.25333 88.7453 7.568 87.156 7.568H85.332V12ZM87.46 1.968H85.332V6.224H87.236C88.324 6.224 89.1027 6.04267 89.572 5.68C90.052 5.31733 90.292 4.77333 90.292 4.048C90.292 3.32267 90.0627 2.79467 89.604 2.464C89.1453 2.13333 88.4307 1.968 87.46 1.968ZM96.6114 3.856C97.7527 3.856 98.654 4.21333 99.3154 4.928C99.9767 5.64267 100.307 6.608 100.307 7.824C100.307 8.64533 100.142 9.38133 99.8114 10.032C99.4807 10.6827 99.0167 11.2 98.4194 11.584C97.8327 11.9573 97.1447 12.144 96.3554 12.144C95.182 12.144 94.2647 11.7867 93.6034 11.072C92.9527 10.3573 92.6274 9.38667 92.6274 8.16C92.6274 7.33867 92.7874 6.60267 93.1074 5.952C93.438 5.30133 93.902 4.78933 94.4994 4.416C95.0967 4.04267 95.8007 3.856 96.6114 3.856ZM96.3714 10.768C97.0754 10.768 97.6407 10.5013 98.0674 9.968C98.5047 9.424 98.7234 8.70933 98.7234 7.824C98.7234 6.992 98.5314 6.352 98.1474 5.904C97.774 5.44533 97.2567 5.216 96.5954 5.216C95.87 5.216 95.2887 5.488 94.8514 6.032C94.414 6.576 94.1954 7.28533 94.1954 8.16C94.1954 8.992 94.3874 9.63733 94.7714 10.096C95.1554 10.544 95.6887 10.768 96.3714 10.768ZM107.015 5.456C106.812 5.392 106.567 5.36 106.279 5.36C105.681 5.36 105.191 5.58933 104.807 6.048C104.433 6.496 104.156 7.21067 103.975 8.192C103.804 9.16267 103.719 10.432 103.719 12H102.199V6.848L102.183 3.984H103.719L103.623 6.544C103.889 5.57333 104.273 4.88533 104.775 4.48C105.287 4.064 105.831 3.856 106.407 3.856C106.577 3.856 106.732 3.86667 106.871 3.888C107.02 3.89867 107.148 3.92533 107.255 3.968L107.015 5.456ZM112.211 12.144C111.262 12.144 110.537 11.8933 110.035 11.392C109.545 10.88 109.305 10.2027 109.315 9.36L109.379 5.28H107.987V3.984H109.395L109.411 2.32H110.947L110.915 3.984H113.635V5.28H110.899L110.851 9.232C110.851 9.70133 110.974 10.08 111.219 10.368C111.465 10.6453 111.843 10.784 112.355 10.784C112.601 10.784 112.83 10.7573 113.043 10.704C113.257 10.64 113.481 10.5173 113.715 10.336L114.179 11.536C113.945 11.7387 113.651 11.8933 113.299 12C112.958 12.096 112.595 12.144 112.211 12.144ZM115.504 12V5.28H113.936V3.984H115.504V3.392C115.504 2.69867 115.637 2.10133 115.904 1.6C116.17 1.088 116.538 0.693333 117.008 0.415999C117.488 0.138666 118.037 -9.53674e-07 118.656 -9.53674e-07C119.413 -9.53674e-07 120.016 0.191999 120.464 0.575999C120.912 0.949333 121.173 1.488 121.248 2.192L119.952 2.352C119.866 1.648 119.424 1.296 118.624 1.296C118.122 1.296 117.728 1.46667 117.44 1.808C117.152 2.13867 117.008 2.61867 117.008 3.248V3.984H119.584V5.28H117.04V12H115.504ZM123.846 3.856C124.987 3.856 125.888 4.21333 126.55 4.928C127.211 5.64267 127.542 6.608 127.542 7.824C127.542 8.64533 127.376 9.38133 127.046 10.032C126.715 10.6827 126.251 11.2 125.654 11.584C125.067 11.9573 124.379 12.144 123.59 12.144C122.416 12.144 121.499 11.7867 120.838 11.072C120.187 10.3573 119.862 9.38667 119.862 8.16C119.862 7.33867 120.022 6.60267 120.342 5.952C120.672 5.30133 121.136 4.78933 121.734 4.416C122.331 4.04267 123.035 3.856 123.846 3.856ZM123.606 10.768C124.31 10.768 124.875 10.5013 125.302 9.968C125.739 9.424 125.958 8.70933 125.958 7.824C125.958 6.992 125.766 6.352 125.382 5.904C125.008 5.44533 124.491 5.216 123.83 5.216C123.104 5.216 122.523 5.488 122.086 6.032C121.648 6.576 121.43 7.28533 121.43 8.16C121.43 8.992 121.622 9.63733 122.006 10.096C122.39 10.544 122.923 10.768 123.606 10.768ZM131.561 12.144C130.846 12.144 130.308 11.952 129.945 11.568C129.593 11.1733 129.417 10.64 129.417 9.968V0.16H130.953V9.808C130.953 10.4587 131.246 10.784 131.833 10.784C131.982 10.784 132.121 10.7627 132.249 10.72C132.388 10.6773 132.505 10.6293 132.601 10.576L132.985 11.712C132.836 11.84 132.628 11.9413 132.361 12.016C132.105 12.1013 131.838 12.144 131.561 12.144ZM135.39 3.984V12H133.87V3.984H135.39ZM134.654 2.432C134.345 2.432 134.099 2.336 133.918 2.144C133.737 1.94133 133.646 1.70667 133.646 1.44C133.646 1.17333 133.737 0.943999 133.918 0.752C134.099 0.549333 134.345 0.447999 134.654 0.447999C134.963 0.447999 135.209 0.549333 135.39 0.752C135.571 0.943999 135.662 1.17333 135.662 1.44C135.662 1.70667 135.571 1.94133 135.39 2.144C135.209 2.336 134.963 2.432 134.654 2.432ZM141.283 3.856C142.425 3.856 143.326 4.21333 143.987 4.928C144.649 5.64267 144.979 6.608 144.979 7.824C144.979 8.64533 144.814 9.38133 144.483 10.032C144.153 10.6827 143.689 11.2 143.091 11.584C142.505 11.9573 141.817 12.144 141.027 12.144C139.854 12.144 138.937 11.7867 138.275 11.072C137.625 10.3573 137.299 9.38667 137.299 8.16C137.299 7.33867 137.459 6.60267 137.779 5.952C138.11 5.30133 138.574 4.78933 139.171 4.416C139.769 4.04267 140.473 3.856 141.283 3.856ZM141.043 10.768C141.747 10.768 142.313 10.5013 142.739 9.968C143.177 9.424 143.395 8.70933 143.395 7.824C143.395 6.992 143.203 6.352 142.819 5.904C142.446 5.44533 141.929 5.216 141.267 5.216C140.542 5.216 139.961 5.488 139.523 6.032C139.086 6.576 138.867 7.28533 138.867 8.16C138.867 8.992 139.059 9.63733 139.443 10.096C139.827 10.544 140.361 10.768 141.043 10.768ZM193.935 9.808C193.508 10.5653 192.916 11.1467 192.159 11.552C191.401 11.9467 190.543 12.144 189.583 12.144C188.473 12.144 187.513 11.92 186.703 11.472C185.903 11.0133 185.289 10.368 184.863 9.536C184.436 8.69333 184.223 7.69067 184.223 6.528C184.223 5.33333 184.457 4.28267 184.927 3.376C185.407 2.46933 186.068 1.76 186.911 1.248C187.753 0.735999 188.735 0.48 189.855 0.48C191.711 0.48 193.076 1.21067 193.951 2.672L192.703 3.6C192.393 3.04533 191.993 2.63467 191.503 2.368C191.012 2.09067 190.452 1.952 189.823 1.952C189.044 1.952 188.356 2.144 187.759 2.528C187.172 2.912 186.708 3.45067 186.367 4.144C186.036 4.82667 185.871 5.616 185.871 6.512C185.871 7.824 186.196 8.84267 186.847 9.568C187.508 10.2933 188.425 10.656 189.599 10.656C190.281 10.656 190.889 10.5067 191.423 10.208C191.956 9.90933 192.388 9.46133 192.719 8.864L193.935 9.808ZM198.596 3.856C199.737 3.856 200.638 4.21333 201.3 4.928C201.961 5.64267 202.292 6.608 202.292 7.824C202.292 8.64533 202.126 9.38133 201.796 10.032C201.465 10.6827 201.001 11.2 200.404 11.584C199.817 11.9573 199.129 12.144 198.34 12.144C197.166 12.144 196.249 11.7867 195.588 11.072C194.937 10.3573 194.612 9.38667 194.612 8.16C194.612 7.33867 194.772 6.60267 195.092 5.952C195.422 5.30133 195.886 4.78933 196.484 4.416C197.081 4.04267 197.785 3.856 198.596 3.856ZM198.356 10.768C199.06 10.768 199.625 10.5013 200.052 9.968C200.489 9.424 200.708 8.70933 200.708 7.824C200.708 6.992 200.516 6.352 200.132 5.904C199.758 5.44533 199.241 5.216 198.58 5.216C197.854 5.216 197.273 5.488 196.836 6.032C196.398 6.576 196.18 7.28533 196.18 8.16C196.18 8.992 196.372 9.63733 196.756 10.096C197.14 10.544 197.673 10.768 198.356 10.768ZM204.167 12V3.984H205.703L205.607 6.352C205.906 5.552 206.327 4.93867 206.871 4.512C207.415 4.07467 208.05 3.856 208.775 3.856C209.628 3.856 210.279 4.15467 210.727 4.752C211.175 5.33867 211.394 6.18667 211.383 7.296L211.351 12H209.831L209.863 7.44C209.874 6 209.383 5.28 208.391 5.28C207.868 5.28 207.404 5.48267 206.999 5.888C206.604 6.29333 206.29 6.98667 206.055 7.968C205.82 8.94933 205.698 10.2933 205.687 12H204.167ZM216.758 12.144C215.809 12.144 215.084 11.8933 214.582 11.392C214.092 10.88 213.852 10.2027 213.862 9.36L213.926 5.28H212.534V3.984H213.942L213.958 2.32H215.494L215.462 3.984H218.182V5.28H215.446L215.398 9.232C215.398 9.70133 215.521 10.08 215.766 10.368C216.012 10.6453 216.39 10.784 216.902 10.784C217.148 10.784 217.377 10.7573 217.59 10.704C217.804 10.64 218.028 10.5173 218.262 10.336L218.726 11.536C218.492 11.7387 218.198 11.8933 217.846 12C217.505 12.096 217.142 12.144 216.758 12.144ZM226.694 4V12H225.126L225.19 10.352C224.892 10.9067 224.502 11.344 224.022 11.664C223.542 11.984 222.993 12.144 222.374 12.144C221.681 12.144 221.094 11.984 220.614 11.664C220.145 11.3333 219.788 10.8853 219.542 10.32C219.297 9.75467 219.174 9.104 219.174 8.368C219.174 7.48267 219.34 6.69867 219.67 6.016C220.012 5.33333 220.476 4.80533 221.062 4.432C221.66 4.048 222.342 3.856 223.11 3.856C223.622 3.856 224.076 3.97333 224.47 4.208C224.876 4.432 225.174 4.73067 225.366 5.104L225.558 4H226.694ZM223.174 5.216C222.438 5.216 221.846 5.49867 221.398 6.064C220.961 6.61867 220.742 7.35467 220.742 8.272C220.742 9.06133 220.913 9.67467 221.254 10.112C221.596 10.5493 222.054 10.768 222.63 10.768C223.11 10.768 223.542 10.6293 223.926 10.352C224.31 10.0747 224.614 9.69067 224.838 9.2C225.062 8.69867 225.174 8.128 225.174 7.488C225.174 6.784 224.993 6.22933 224.63 5.824C224.278 5.41867 223.793 5.216 223.174 5.216ZM232.421 12.144C231.226 12.144 230.287 11.792 229.605 11.088C228.922 10.384 228.581 9.40267 228.581 8.144C228.581 7.29067 228.746 6.544 229.077 5.904C229.418 5.25333 229.893 4.752 230.501 4.4C231.109 4.03733 231.813 3.856 232.613 3.856C233.946 3.856 234.917 4.384 235.525 5.44L234.405 6.288C234.01 5.584 233.407 5.232 232.597 5.232C231.871 5.232 231.285 5.49867 230.837 6.032C230.389 6.55467 230.164 7.25333 230.164 8.128C230.164 8.98133 230.362 9.632 230.757 10.08C231.162 10.528 231.743 10.752 232.501 10.752C232.895 10.752 233.258 10.6667 233.589 10.496C233.93 10.3253 234.213 10.0533 234.437 9.68L235.525 10.544C235.183 11.0987 234.746 11.504 234.213 11.76C233.69 12.016 233.093 12.144 232.421 12.144ZM240.086 12.144C239.137 12.144 238.412 11.8933 237.91 11.392C237.42 10.88 237.18 10.2027 237.19 9.36L237.254 5.28H235.862V3.984H237.27L237.286 2.32H238.822L238.79 3.984H241.51V5.28H238.774L238.726 9.232C238.726 9.70133 238.849 10.08 239.094 10.368C239.34 10.6453 239.718 10.784 240.23 10.784C240.476 10.784 240.705 10.7573 240.918 10.704C241.132 10.64 241.356 10.5173 241.59 10.336L242.054 11.536C241.82 11.7387 241.526 11.8933 241.174 12C240.833 12.096 240.47 12.144 240.086 12.144Z" fill="#222A41"/>
</svg>
