<svg width="40" height="39" viewBox="0 0 40 39" fill="none" xmlns="http://www.w3.org/2000/svg">
<path d="M39.5 19.52C39.5 29.8287 30.789 38.22 20 38.22C9.21101 38.22 0.5 29.8287 0.5 19.52C0.5 9.21132 9.21101 0.820007 20 0.820007C30.789 0.820007 39.5 9.21132 39.5 19.52Z" stroke="#DBDBDB"/>
<path fill-rule="evenodd" clip-rule="evenodd" d="M21.0932 26.24V20.192H23.1334L23.4667 17.504H21.0932V16.1949C21.0932 15.5028 21.1129 14.816 22.1875 14.816H23.276V12.8941C23.276 12.8652 22.3411 12.8 21.3952 12.8C19.4197 12.8 18.1828 13.9135 18.1828 15.9584V17.504H16V20.192H18.1828V26.24H21.0932Z" fill="#DBDBDB"/>
</svg>
