<svg width="13" height="14" viewBox="0 0 13 14" fill="none" xmlns="http://www.w3.org/2000/svg">
<mask id="mask0_9_379" style="mask-type:luminance" maskUnits="userSpaceOnUse" x="0" y="0" width="13" height="14">
<path fill-rule="evenodd" clip-rule="evenodd" d="M0 0.760025H13V13.24H0V0.760025Z" fill="white"/>
</mask>
<g mask="url(#mask0_9_379)">
<path fill-rule="evenodd" clip-rule="evenodd" d="M10.7497 3.66908C10.7497 4.08263 10.4005 4.41788 9.96973 4.41788C9.53896 4.41788 9.18968 4.08263 9.18968 3.66908C9.18968 3.25554 9.53896 2.92028 9.96973 2.92028C10.4005 2.92028 10.7497 3.25554 10.7497 3.66908M6.5 9.08004C5.30339 9.08004 4.33332 8.14877 4.33332 7.00002C4.33332 5.85128 5.30339 4.92001 6.5 4.92001C7.69661 4.92001 8.66669 5.85128 8.66669 7.00002C8.66669 8.14877 7.69661 9.08004 6.5 9.08004M6.5 3.79569C4.65659 3.79569 3.16215 5.2303 3.16215 7.00002C3.16215 8.7697 4.65659 10.2044 6.5 10.2044C8.34341 10.2044 9.83785 8.7697 9.83785 7.00002C9.83785 5.2303 8.34341 3.79569 6.5 3.79569M6.5 0.760025C4.73469 0.760025 4.51339 0.767191 3.82007 0.797563C3.12823 0.827885 2.65571 0.933331 2.24225 1.08763C1.81482 1.24709 1.45234 1.46047 1.09098 1.80737C0.729625 2.15423 0.507355 2.5022 0.34125 2.91258C0.180578 3.3095 0.0706875 3.76307 0.0391016 4.42729C0.00746484 5.09283 0 5.30533 0 7.00003C0 8.69472 0.00746484 8.90722 0.0391016 9.57276C0.0706875 10.2369 0.180578 10.6905 0.34125 11.0875C0.507355 11.4977 0.729625 11.8458 1.09098 12.1927C1.45234 12.5396 1.81482 12.753 2.24225 12.9124C2.65571 13.0667 3.12823 13.1722 3.82007 13.2025C4.51339 13.2329 4.73469 13.24 6.5 13.24C8.26531 13.24 8.48671 13.2329 9.17993 13.2025C9.87182 13.1722 10.3443 13.0667 10.7578 12.9124C11.1852 12.753 11.5477 12.5396 11.9091 12.1927C12.2704 11.8458 12.4926 11.4978 12.6588 11.0875C12.8195 10.6905 12.9293 10.2369 12.9609 9.57276C12.9925 8.90722 13 8.69472 13 7.00003C13 5.30533 12.9925 5.09283 12.9609 4.42729C12.9293 3.76307 12.8195 3.3095 12.6588 2.91258C12.4926 2.5022 12.2704 2.15423 11.9091 1.80737C11.5477 1.46047 11.1852 1.24709 10.7578 1.08763C10.3443 0.933331 9.87182 0.827885 9.17993 0.797563C8.48671 0.767191 8.26531 0.760025 6.5 0.760025M6.5 1.88434C8.2356 1.88434 8.44117 1.89068 9.12656 1.92071C9.76031 1.9485 10.1045 2.05014 10.3336 2.13555C10.6369 2.24875 10.8535 2.38403 11.0809 2.60233C11.3084 2.82069 11.4492 3.0286 11.5672 3.31984C11.6562 3.53975 11.7621 3.87018 11.791 4.47853C11.8222 5.13651 11.8288 5.33385 11.8288 7.00002C11.8288 8.66615 11.8222 8.86349 11.791 9.52147C11.7621 10.1299 11.6562 10.4603 11.5672 10.6802C11.4492 10.9714 11.3084 11.1793 11.0809 11.3977C10.8535 11.616 10.6369 11.7513 10.3336 11.8644C10.1045 11.9499 9.76031 12.0515 9.12656 12.0793C8.44127 12.1093 8.2357 12.1157 6.5 12.1157C4.76435 12.1157 4.55874 12.1093 3.87344 12.0793C3.23974 12.0515 2.89555 11.9499 2.66653 11.8644C2.36311 11.7513 2.14653 11.616 1.91908 11.3977C1.69168 11.1793 1.55081 10.9714 1.4329 10.6802C1.34388 10.4603 1.238 10.1299 1.2091 9.52152C1.17777 8.86349 1.17117 8.66615 1.17117 7.00002C1.17117 5.33385 1.17777 5.13651 1.2091 4.47853C1.238 3.87018 1.34388 3.53975 1.4329 3.31984C1.55081 3.0286 1.69168 2.82069 1.91908 2.60233C2.14653 2.38403 2.36311 2.24875 2.66653 2.13555C2.89555 2.05014 3.23974 1.9485 3.87344 1.92071C4.55884 1.89068 4.76445 1.88434 6.5 1.88434" fill="#DBDBDB"/>
</g>
</svg>
