<svg width="55" height="54" viewBox="0 0 55 54" fill="none" xmlns="http://www.w3.org/2000/svg">
<g clip-path="url(#clip0_2_392)">
<ellipse cx="27.5" cy="27" rx="27.5" ry="26.4" fill="white"/>
<mask id="mask0_2_392" style="mask-type:luminance" maskUnits="userSpaceOnUse" x="0" y="0" width="55" height="54">
<ellipse cx="27.5" cy="27" rx="27.5" ry="26.4" fill="white"/>
</mask>
<g mask="url(#mask0_2_392)">
<rect y="0.600006" width="55" height="52.8" fill="#3B43F2"/>
</g>
<path d="M28.1148 38.94C25.5761 38.9627 23.4001 38.498 21.5868 37.546C19.7734 36.594 18.3794 35.2227 17.4048 33.432C16.4301 31.6413 15.9428 29.488 15.9428 26.972C15.9428 24.456 16.4528 22.2347 17.4728 20.308C18.5154 18.3587 19.9774 16.84 21.8588 15.752C23.7401 14.664 25.9728 14.12 28.5568 14.12C30.8461 14.12 32.8521 14.6187 34.5748 15.616C36.2974 16.6133 37.6348 18.0073 38.5868 19.798C39.5614 21.566 40.0488 23.6513 40.0488 26.054C40.0488 28.638 39.5388 30.8933 38.5188 32.82C37.4988 34.7467 36.0821 36.2427 34.2688 37.308C32.4781 38.3733 30.4268 38.9173 28.1148 38.94ZM27.9108 34.01C29.8374 34.01 31.4014 33.3187 32.6028 31.936C33.8041 30.5307 34.4048 28.5927 34.4048 26.122C34.4048 23.9687 33.8608 22.2573 32.7728 20.988C31.6848 19.696 30.2228 19.05 28.3868 19.05C27.0494 19.05 25.8708 19.3787 24.8508 20.036C23.8308 20.6933 23.0261 21.6113 22.4368 22.79C21.8701 23.946 21.5868 25.306 21.5868 26.87C21.5868 29.1367 22.1421 30.8933 23.2528 32.14C24.3861 33.3867 25.9388 34.01 27.9108 34.01Z" fill="white"/>
</g>
<defs>
<clipPath id="clip0_2_392">
<rect width="55" height="52.8" fill="white" transform="translate(0 0.600006)"/>
</clipPath>
</defs>
</svg>
