<svg width="164" height="100" viewBox="0 0 164 100" fill="none" xmlns="http://www.w3.org/2000/svg">
<path fill-rule="evenodd" clip-rule="evenodd" d="M63.364 44.8964C63.9398 44.4002 64.3691 43.7352 64.5729 43.0021C64.8003 42.1913 64.7818 41.3257 64.6054 40.5072C64.4296 39.7117 63.9977 38.9773 63.3876 38.4384C62.7481 37.8626 61.9633 37.4766 61.1614 37.1792C60.229 36.841 59.2965 36.4996 58.3627 36.1607C57.9188 35.9907 57.4684 35.8047 57.1028 35.4932C56.8232 35.2588 56.6245 34.9295 56.5627 34.569C56.4926 34.1626 56.5156 33.7231 56.7175 33.355C56.871 33.0639 57.12 32.834 57.4054 32.6728C57.8417 32.4238 58.3436 32.3161 58.8404 32.2741C59.8793 32.1983 60.9347 32.3658 61.8952 32.7677C62.6239 33.0633 63.2901 33.4907 63.9149 33.9639C63.9162 33.0378 63.9162 32.1117 63.9149 31.1849C62.9156 30.5346 61.7595 30.1454 60.5812 29.9843C59.5251 29.8454 58.4379 29.8531 57.4016 30.1181C56.5805 30.3263 55.7882 30.6989 55.1608 31.276C54.4704 31.9009 54.0309 32.7881 53.9391 33.7142C53.8481 34.7009 53.9958 35.7442 54.5347 36.5926C54.9334 37.2238 55.5245 37.7117 56.171 38.0747C57.0219 38.562 57.9659 38.8435 58.8812 39.1824C59.634 39.4626 60.4137 39.6938 61.1105 40.1047C61.5092 40.3391 61.8716 40.6805 62.02 41.1295C62.1665 41.5817 62.1697 42.09 61.9946 42.5346C61.8372 42.9416 61.5073 43.2614 61.1239 43.4601C60.4487 43.8091 59.6684 43.8837 58.9188 43.8722C57.1442 43.8512 55.42 43.1499 54.0474 42.0423C54.0442 42.9843 54.0481 43.9257 54.0455 44.8671C55.1895 45.6524 56.5608 46.0461 57.9283 46.1996C59.0239 46.3161 60.1442 46.2773 61.2124 45.9945C61.9946 45.7843 62.75 45.4314 63.364 44.8964" fill="#B4B4B4"/>
<path fill-rule="evenodd" clip-rule="evenodd" d="M127.288 45.1735C127.911 44.743 128.418 44.1391 128.709 43.4385C129.056 42.6181 129.089 41.699 128.961 40.8277C128.841 40.0289 128.493 39.2601 127.932 38.6754C127.324 38.0277 126.527 37.5958 125.711 37.2678C124.795 36.9226 123.872 36.5971 122.953 36.2582C122.393 36.0544 121.811 35.8519 121.358 35.4512C120.773 34.9404 120.664 34.0156 121.011 33.341C121.344 32.7226 122.049 32.4302 122.71 32.3162C123.946 32.1238 125.233 32.327 126.372 32.8366C127.031 33.127 127.635 33.5226 128.209 33.9531C128.214 33.0289 128.209 32.1041 128.211 31.1799C126.88 30.3111 125.279 29.9047 123.698 29.8907C122.428 29.8608 121.118 30.1213 120.038 30.813C119.363 31.2461 118.803 31.8748 118.502 32.6226C118.254 33.2194 118.174 33.8767 118.213 34.5187C118.246 35.2264 118.427 35.9372 118.803 36.5436C119.18 37.157 119.74 37.6391 120.356 38.0028C121.025 38.4041 121.762 38.6691 122.495 38.9283C123.251 39.2098 124.022 39.4544 124.765 39.7716C125.219 39.9773 125.683 40.2079 126.013 40.5939C126.388 41.0289 126.481 41.6474 126.381 42.1996C126.3 42.671 126 43.0894 125.597 43.3423C125.076 43.6773 124.452 43.8009 123.844 43.848C123.244 43.8824 122.64 43.8576 122.049 43.75C120.685 43.5162 119.406 42.8888 118.331 42.0258C118.327 42.9672 118.332 43.9086 118.328 44.85C119.171 45.4385 120.155 45.7977 121.154 46.0175C122.357 46.271 123.609 46.3315 124.825 46.1315C125.697 45.9831 126.558 45.6863 127.288 45.1735" fill="#B4B4B4"/>
<path fill-rule="evenodd" clip-rule="evenodd" d="M144.436 39.0827C143.929 38.3699 143.185 37.8623 142.402 37.4941C141.547 37.105 140.647 36.8285 139.77 36.4948C139.022 36.2024 138.208 36.0056 137.573 35.4897C136.989 35.0215 136.845 34.1534 137.115 33.4782C137.257 33.1285 137.535 32.8495 137.861 32.6655C138.309 32.4094 138.826 32.2992 139.338 32.2597C140.345 32.1922 141.368 32.3546 142.303 32.7343C143.049 33.0343 143.734 33.4642 144.37 33.9508C144.37 33.0572 144.37 32.1629 144.37 31.2686C144.376 31.2075 144.356 31.1483 144.298 31.1241C142.911 30.2527 141.253 29.8642 139.624 29.8909C138.826 29.8871 138.026 30.0196 137.275 30.2878C136.44 30.5903 135.66 31.0935 135.129 31.8132C134.656 32.4413 134.407 33.2209 134.378 34.0037C134.348 34.8444 134.491 35.7126 134.917 36.4489C135.308 37.1349 135.929 37.6629 136.609 38.0514C137.456 38.5419 138.399 38.8228 139.312 39.1616C140.08 39.4464 140.876 39.682 141.585 40.103C141.973 40.3323 142.323 40.6636 142.474 41.0986C142.629 41.5585 142.631 42.0769 142.454 42.5317C142.303 42.9151 141.997 43.2196 141.642 43.419C140.957 43.7948 140.154 43.8737 139.385 43.8604C137.606 43.8432 135.877 43.1374 134.501 42.026C134.508 42.9699 134.484 43.9164 134.513 44.8591C135.268 45.3897 136.146 45.7253 137.036 45.9514C138.004 46.1884 139.006 46.2865 140.001 46.2381C140.893 46.1928 141.787 46.0209 142.605 45.6546C143.368 45.3164 144.063 44.7884 144.529 44.089C144.993 43.3979 145.212 42.5578 145.196 41.7298C145.206 40.8011 144.988 39.8432 144.436 39.0827" fill="#B4B4B4"/>
<path fill-rule="evenodd" clip-rule="evenodd" d="M95.3854 46.2648C95.3873 40.8928 95.3867 35.5215 95.3854 30.1502C94.5224 30.1508 93.6587 30.1508 92.7963 30.1508C92.7924 33.5202 92.7982 36.8903 92.7931 40.2604C89.1708 36.81 85.5555 33.3527 81.9357 29.9011C81.937 35.2686 81.9338 40.6362 81.937 46.003C82.7988 46.0049 83.6606 45.9998 84.5224 46.0056C84.5338 42.5795 84.5211 39.1527 84.5294 35.7272C85.716 36.8591 86.8835 38.0126 88.0644 39.1521C90.5033 41.5234 92.9466 43.8916 95.3854 46.2648" fill="#B4B4B4"/>
<path fill-rule="evenodd" clip-rule="evenodd" d="M26.6517 41.8691C26.5561 42.4099 26.2332 42.906 25.7695 43.2035C25.2256 43.5602 24.5587 43.6646 23.9186 43.6717C22.7918 43.671 21.6651 43.6723 20.5377 43.6704C20.5377 42.1283 20.5383 40.5857 20.5377 39.0436C21.6644 39.0417 22.7912 39.0443 23.9179 39.0424C24.3631 39.0353 24.8128 39.0908 25.2351 39.2373C25.6975 39.3946 26.123 39.692 26.3791 40.115C26.6969 40.6347 26.7593 41.278 26.6517 41.8691M22.8823 32.4825C23.4332 32.4838 23.9899 32.4755 24.5332 32.5876C25.0141 32.6857 25.4988 32.8901 25.8173 33.2767C26.1791 33.7086 26.2689 34.3016 26.23 34.8474C26.1988 35.3443 26.0103 35.8487 25.6288 36.1831C25.1109 36.6385 24.3969 36.7697 23.7281 36.8022C22.6663 36.8111 21.6045 36.7984 20.5434 36.8086C20.5313 35.3672 20.5415 33.9252 20.5377 32.4831C21.3198 32.4818 22.1007 32.4831 22.8823 32.4825M29.037 39.9532C28.6975 39.1353 28.0708 38.4366 27.281 38.0315C27.1319 37.9494 26.9651 37.9035 26.8224 37.8099C27.688 37.471 28.3319 36.6952 28.6141 35.822C28.8797 35.0086 28.8784 34.1201 28.6899 33.2901C28.5167 32.5513 28.1147 31.8653 27.5364 31.3717C26.8275 30.7557 25.9147 30.429 24.9995 30.2748C24.0358 30.1067 23.0549 30.1596 22.081 30.1506C20.695 30.1506 19.3103 30.1506 17.9243 30.1513C17.923 35.4347 17.923 40.7188 17.9243 46.0029C19.7644 46.0035 21.6052 46.0029 23.4453 46.0035C24.2823 46.0162 25.1281 45.9882 25.944 45.7825C26.8912 45.5519 27.8096 45.078 28.4294 44.3086C28.9791 43.6373 29.2606 42.7787 29.3205 41.9207C29.3791 41.2545 29.3014 40.5704 29.037 39.9532" fill="#B4B4B4"/>
<path fill-rule="evenodd" clip-rule="evenodd" d="M44.4465 45.667C45.4899 45.2045 46.3771 44.3956 46.9179 43.3886C47.5446 42.2383 47.7663 40.9058 47.7453 39.6071C47.7453 36.4548 47.7453 33.3026 47.7446 30.151C46.8497 30.1504 45.9555 30.1504 45.0612 30.151C45.0586 33.1784 45.0606 36.2058 45.0599 39.2326C45.0688 40.0166 45.0058 40.8115 44.7637 41.5612C44.558 42.1918 44.2026 42.7943 43.6631 43.195C43.0204 43.6854 42.1892 43.8536 41.395 43.8491C40.6134 43.8504 39.802 43.6791 39.1669 43.202C38.5236 42.7249 38.1402 41.9765 37.9574 41.2109C37.7192 40.2714 37.7593 39.295 37.7574 38.3345C37.7574 35.6071 37.758 32.8784 37.7574 30.1504C36.8625 30.1504 35.9676 30.1504 35.0733 30.151C35.0707 33.2867 35.0733 36.4217 35.072 39.5574C35.0618 40.4485 35.1567 41.3466 35.4147 42.2007C35.644 42.9491 36.0032 43.6631 36.5102 44.2612C36.9351 44.7708 37.4663 45.1892 38.0523 45.5013C38.8504 45.9287 39.7453 46.1517 40.644 46.2287C41.9293 46.3319 43.2599 46.1963 44.4465 45.667" fill="#B4B4B4"/>
<path fill-rule="evenodd" clip-rule="evenodd" d="M71.6227 30.1482C71.6132 35.4329 71.6202 40.7183 71.6196 46.0036C72.5157 45.9985 73.4126 46.0125 74.3087 45.9966C74.2966 40.7151 74.3087 35.4323 74.303 30.1507C73.4094 30.1488 72.5157 30.1539 71.6227 30.1482" fill="#B4B4B4"/>
<path fill-rule="evenodd" clip-rule="evenodd" d="M112.109 43.5885C109.794 43.5892 107.478 43.5892 105.163 43.5885C105.161 41.956 105.161 40.3229 105.163 38.6898C107.239 38.6892 109.315 38.6898 111.391 38.6898C111.393 37.9038 111.393 37.1191 111.391 36.3337C109.315 36.3331 107.239 36.335 105.163 36.3331C105.161 35.0694 105.161 33.8057 105.163 32.5414C107.478 32.5408 109.794 32.542 112.11 32.5414C112.111 31.7439 112.111 30.9471 112.11 30.1503C108.916 30.1478 105.723 30.156 102.529 30.1465C102.515 31.1484 102.528 32.1509 102.523 33.1535C102.527 37.4382 102.517 41.7223 102.528 46.0057C105.722 45.9994 108.916 46.0044 112.11 46.0032C112.111 45.1981 112.112 44.3936 112.109 43.5885" fill="#B4B4B4"/>
<path fill-rule="evenodd" clip-rule="evenodd" d="M49.6066 54.2247C49.6041 57.5394 49.6085 60.8547 49.6041 64.17C46.0073 60.7725 42.4143 57.37 38.8206 53.97C38.8136 59.2521 38.8187 64.5349 38.8181 69.8171C39.6773 69.819 40.5366 69.8171 41.3958 69.8171C41.3971 66.4445 41.3964 63.0719 41.3964 59.698C44.9907 63.1521 48.5754 66.6171 52.1735 70.0661C52.1722 64.7859 52.1735 59.505 52.1729 54.2247C51.3175 54.2241 50.462 54.2241 49.6066 54.2247" fill="#B4B4B4"/>
<path fill-rule="evenodd" clip-rule="evenodd" d="M68.1855 62.2853C67.5721 61.765 66.839 61.4076 66.088 61.1325C65.1434 60.7898 64.1969 60.4516 63.2523 60.1076C62.7791 59.9255 62.2918 59.7236 61.9275 59.3579C61.4568 58.9044 61.3587 58.1618 61.5632 57.5611C61.6893 57.2051 61.9587 56.9121 62.281 56.7229C62.7109 56.465 63.2097 56.3516 63.7046 56.3019C64.7447 56.2185 65.8052 56.3771 66.7714 56.7745C67.5033 57.0675 68.174 57.4936 68.8027 57.9662C68.8039 57.0522 68.8052 56.1388 68.802 55.2242C67.546 54.4197 66.0581 54.0242 64.5759 53.9675C63.4657 53.9172 62.3288 54.0675 61.3122 54.5325C60.6052 54.8548 59.9613 55.3427 59.5224 55.9892C59.0848 56.6242 58.8689 57.3994 58.8734 58.1681C58.8593 58.9796 59.0294 59.8108 59.4638 60.5051C59.8925 61.1955 60.553 61.714 61.2657 62.0885C62.0562 62.5134 62.9199 62.7726 63.7587 63.0828C64.495 63.3529 65.253 63.5809 65.9421 63.9643C66.3421 64.1892 66.7224 64.507 66.8931 64.9471C67.0549 65.3675 67.0676 65.8446 66.937 66.2751C66.8052 66.707 66.4772 67.0586 66.0861 67.2732C65.4122 67.6401 64.6237 67.7204 63.8689 67.7108C62.1001 67.6968 60.374 67.0083 59.0058 65.9044C59.0014 66.8312 59.0097 67.7586 59.0007 68.686C59.3663 68.956 59.7791 69.1554 60.1944 69.3369C61.1651 69.742 62.2058 69.963 63.253 70.0344C64.2638 70.0962 65.2931 70.042 66.2683 69.7541C67.0504 69.5261 67.8039 69.1509 68.3956 68.5841C68.9593 68.0579 69.3549 67.3579 69.5135 66.6038C69.6785 65.8236 69.639 65.0044 69.4396 64.2344C69.239 63.4726 68.7867 62.7898 68.1855 62.2853" fill="#B4B4B4"/>
<path fill-rule="evenodd" clip-rule="evenodd" d="M28.5246 69.8174C29.4189 69.818 30.3138 69.8186 31.2087 69.8174V54.225C30.3138 54.2244 29.4189 54.2244 28.5246 54.2244C28.5227 59.4225 28.5234 64.6199 28.5246 69.8174" fill="#B4B4B4"/>
<path fill-rule="evenodd" clip-rule="evenodd" d="M76.4953 69.8174C77.3857 69.8174 78.2774 69.8193 79.1679 69.8174C79.1685 64.6199 79.1685 59.4225 79.1679 54.225C78.2774 54.2244 77.3857 54.225 76.4959 54.2244C76.494 59.4225 76.4946 64.6199 76.4953 69.8174" fill="#B4B4B4"/>
<path fill-rule="evenodd" clip-rule="evenodd" d="M97.6624 63.9759C97.4382 64.8193 97.0147 65.6244 96.3726 66.2231C95.6478 66.911 94.6739 67.2868 93.6917 67.4014C93.1752 67.4689 92.6554 67.4473 92.137 67.4505C91.2924 67.4505 90.4478 67.4517 89.6032 67.4505C89.6038 63.8231 89.6038 60.1957 89.6032 56.5689C90.4013 56.567 91.1994 56.5683 91.9962 56.5677C92.5134 56.5721 93.0319 56.5505 93.5484 56.604C94.4026 56.6868 95.2567 56.9479 95.9567 57.4556C96.5663 57.888 97.0414 58.4963 97.3503 59.1753C97.672 59.8791 97.8306 60.6479 97.8828 61.4173C97.9389 62.2747 97.8828 63.1441 97.6624 63.9759M97.6605 55.6129C96.3535 54.6638 94.7229 54.246 93.1229 54.2244C91.0624 54.2237 89.0026 54.2237 86.9427 54.2244C86.9414 59.4224 86.9421 64.6199 86.9421 69.8173C89.0038 69.8193 91.0656 69.8173 93.1268 69.8186C94.1809 69.804 95.2389 69.6212 96.2178 69.2244C97.4707 68.7237 98.5733 67.8403 99.307 66.7059C100.197 65.3581 100.567 63.7256 100.581 62.1256C100.591 61.0065 100.436 59.8772 100.052 58.8224C99.5917 57.5505 98.7663 56.4008 97.6605 55.6129" fill="#B4B4B4"/>
<path fill-rule="evenodd" clip-rule="evenodd" d="M115.713 54.2234C112.538 54.2259 109.362 54.2234 106.187 54.2247C106.186 59.4221 106.186 64.6196 106.187 69.817C109.362 69.8183 112.539 69.8177 115.714 69.817C115.715 69.0285 115.715 68.2399 115.714 67.4508C113.414 67.4508 111.113 67.4514 108.813 67.4508V62.6228C110.875 62.6177 112.938 62.6298 114.999 62.6164C114.992 61.8489 114.998 61.0814 114.996 60.3138C112.936 60.3138 110.876 60.3119 108.816 60.3145C108.809 59.0661 108.814 57.817 108.814 56.568C111.113 56.568 113.414 56.5686 115.714 56.568C115.714 55.7864 115.717 55.0049 115.713 54.2234" fill="#B4B4B4"/>
<path fill-rule="evenodd" clip-rule="evenodd" d="M126.316 61.2789C126.315 59.6929 126.315 58.1076 126.316 56.5209C127.061 56.5203 127.807 56.5209 128.553 56.5209C129.129 56.5248 129.716 56.4878 130.279 56.6394C130.836 56.777 131.367 57.0935 131.681 57.5853C132.016 58.1006 132.098 58.7458 132.008 59.3451C131.937 59.8197 131.716 60.2757 131.358 60.6012C130.833 61.084 130.098 61.2668 129.4 61.2789H126.316ZM132.511 62.9725C133.147 62.6827 133.701 62.2101 134.056 61.6069C134.531 60.8031 134.686 59.8502 134.679 58.9286C134.694 58.0273 134.501 57.1031 134.021 56.3318C133.619 55.6764 133.01 55.1585 132.319 54.8286C131.444 54.3993 130.46 54.2432 129.493 54.2241C127.547 54.2241 125.6 54.2248 123.654 54.2241C123.652 59.4222 123.653 64.6197 123.654 69.8171C124.539 69.819 125.425 69.8152 126.31 69.8197C126.322 67.7114 126.311 65.6025 126.316 63.4942C126.938 63.4929 127.561 63.4942 128.185 63.4935C130.01 65.5986 131.826 67.7107 133.65 69.8171C134.661 69.8171 135.673 69.819 136.685 69.8165C134.809 67.6751 132.928 65.5381 131.051 63.3986C131.552 63.3165 132.049 63.1891 132.511 62.9725V62.9725Z" fill="#B4B4B4"/>
<mask id="mask0_0_115" style="mask-type:luminance" maskUnits="userSpaceOnUse" x="0" y="0" width="164" height="100">
<path fill-rule="evenodd" clip-rule="evenodd" d="M0 99.9427H163.134V0H0V99.9427Z" fill="white"/>
</mask>
<g mask="url(#mask0_0_115)">
</g>
</svg>
