<svg width="164" height="100" viewBox="0 0 164 100" fill="none" xmlns="http://www.w3.org/2000/svg">
<path fill-rule="evenodd" clip-rule="evenodd" d="M74.3008 42.2304C74.3008 40.4527 74.5932 39.175 75.1785 38.3986C75.7639 37.6228 76.7084 37.2343 78.0142 37.2343C79.1626 37.2343 79.9607 37.5884 80.4116 38.2973C80.8613 39.0062 81.0862 40.0814 81.0862 41.5215V51.3782H85.8798V40.6438C85.8798 39.5636 85.7842 38.5795 85.5932 37.6897C85.4014 36.8011 85.0696 36.0476 84.597 35.4279C84.125 34.8094 83.4772 34.326 82.6562 33.9769C81.8339 33.6279 80.7823 33.4534 79.4995 33.4534C78.4868 33.4534 77.4963 33.6846 76.5288 34.1451C75.5613 34.6069 74.7734 35.3438 74.1658 36.3566H74.0651V33.926H69.5078V51.3782H74.3008V42.2304Z" fill="#B4B4B4"/>
<path fill-rule="evenodd" clip-rule="evenodd" d="M91.5002 39.6306C91.6231 39.2038 91.8378 38.7981 92.1416 38.4153C92.4454 38.0331 92.8505 37.7128 93.3569 37.4535C93.8632 37.1949 94.4983 37.065 95.2645 37.065C96.434 37.065 97.3059 37.3803 97.8804 38.0108C98.4543 38.6408 98.8531 39.5631 99.0785 40.7784H91.2804C91.3021 40.4408 91.3766 40.0586 91.5002 39.6306M103.568 45.9771H99.3486C99.1913 46.5178 98.7632 47.03 98.0658 47.5128C97.3683 47.9975 96.5352 48.2389 95.5683 48.2389C94.218 48.2389 93.1824 47.8905 92.4626 47.1924C91.7416 46.4956 91.3486 45.3694 91.2804 43.8166H103.872C103.961 42.4663 103.85 41.1726 103.535 39.9344C103.219 38.6975 102.708 37.5943 101.998 36.6261C101.29 35.6593 100.384 34.8879 99.2811 34.314C98.1779 33.7401 96.8843 33.4529 95.3989 33.4529C94.0709 33.4529 92.862 33.6892 91.7703 34.1624C90.6785 34.635 89.739 35.2815 88.9518 36.1032C88.1632 36.9249 87.5556 37.8981 87.1289 39.0229C86.7008 40.1484 86.4868 41.3637 86.4868 42.6694C86.4868 44.0198 86.6951 45.2573 87.111 46.3822C87.5282 47.5077 88.118 48.4752 88.8843 49.2854C89.6486 50.0956 90.5836 50.7204 91.6862 51.1586C92.7881 51.5981 94.0263 51.8172 95.3989 51.8172C97.3792 51.8172 99.0671 51.3675 100.463 50.4669C101.858 49.5669 102.893 48.0701 103.568 45.9771" fill="#B4B4B4"/>
<path fill-rule="evenodd" clip-rule="evenodd" d="M129.966 33.926H125.038L121.831 45.7413H121.763L118.793 33.926H114.135L111.231 45.7751H111.163L107.956 33.926H102.893L108.43 51.3783H113.392L116.363 39.6649H116.43L119.535 51.3783H124.464L129.966 33.926Z" fill="#B4B4B4"/>
<path fill-rule="evenodd" clip-rule="evenodd" d="M129.831 40.998C130.146 41.5273 130.562 41.9661 131.08 42.3145C131.598 42.6642 132.189 42.9451 132.852 43.1585C133.516 43.3731 134.197 43.5585 134.895 43.7158C136.605 44.0757 137.938 44.4362 138.895 44.796C139.851 45.1559 140.329 45.696 140.329 46.4158C140.329 46.8438 140.229 47.1986 140.026 47.4795C139.824 47.761 139.57 47.9859 139.266 48.1546C138.963 48.3234 138.626 48.4476 138.254 48.526C137.883 48.605 137.528 48.6438 137.191 48.6438C136.718 48.6438 136.262 48.5884 135.823 48.4757C135.384 48.3629 134.996 48.1884 134.658 47.9521C134.321 47.7158 134.045 47.412 133.831 47.0406C133.617 46.6693 133.511 46.2253 133.511 45.7075H128.954C128.998 46.8776 129.263 47.8508 129.747 48.6273C130.231 49.4037 130.849 50.0279 131.603 50.5011C132.357 50.9738 133.218 51.3113 134.186 51.5132C135.153 51.7164 136.143 51.8177 137.157 51.8177C138.147 51.8177 139.12 51.7215 140.077 51.5304C141.033 51.3394 141.882 51.0069 142.625 50.5349C143.368 50.0616 143.97 49.4374 144.431 48.661C144.892 47.8846 145.124 46.9228 145.124 45.775C145.124 44.9648 144.966 44.2839 144.651 43.7324C144.335 43.1814 143.919 42.7196 143.402 42.3483C142.884 41.9769 142.292 41.6795 141.629 41.4534C140.965 41.2292 140.284 41.0374 139.587 40.8801C138.912 40.7228 138.248 40.5763 137.595 40.4413C136.943 40.3062 136.364 40.154 135.857 39.9852C135.35 39.8171 134.94 39.5973 134.624 39.3273C134.309 39.0572 134.152 38.7081 134.152 38.2808C134.152 37.9209 134.242 37.6343 134.422 37.4196C134.602 37.2062 134.822 37.0432 135.08 36.9304C135.339 36.8183 135.626 36.7445 135.942 36.7107C136.256 36.6769 136.549 36.6604 136.819 36.6604C137.674 36.6604 138.417 36.8241 139.047 37.1495C139.677 37.4763 140.026 38.1011 140.094 39.0234H144.651C144.561 37.9432 144.284 37.0483 143.824 36.3394C143.362 35.6304 142.782 35.0623 142.085 34.6349C141.387 34.2075 140.594 33.9037 139.705 33.7234C138.815 33.5432 137.899 33.4534 136.954 33.4534C136.008 33.4534 135.085 33.5381 134.186 33.7062C133.285 33.875 132.475 34.168 131.756 34.5839C131.035 35.0011 130.456 35.5693 130.017 36.289C129.578 37.0094 129.359 37.9324 129.359 39.0572C129.359 39.8228 129.516 40.4693 129.831 40.998" fill="#B4B4B4"/>
<mask id="mask0_0_140" style="mask-type:luminance" maskUnits="userSpaceOnUse" x="0" y="0" width="164" height="100">
<path fill-rule="evenodd" clip-rule="evenodd" d="M0 99.9427H163.134V0H0V99.9427Z" fill="white"/>
</mask>
<g mask="url(#mask0_0_140)">
<path fill-rule="evenodd" clip-rule="evenodd" d="M66.3193 69.8637H68.727V67.502H66.3193V69.8637Z" fill="#B4B4B4"/>
<path fill-rule="evenodd" clip-rule="evenodd" d="M77.2538 67.0444C76.7914 67.5234 76.1328 67.7629 75.2767 67.7629C74.722 67.7629 74.2519 67.6367 73.8659 67.3845C73.4786 67.1329 73.1729 66.81 72.9468 66.4151C72.72 66.0208 72.5557 65.5794 72.4557 65.0928C72.3544 64.6055 72.3041 64.1272 72.3041 63.6571C72.3041 63.1699 72.3544 62.6788 72.4557 62.1832C72.5557 61.6877 72.7283 61.2348 72.971 60.8227C73.2143 60.4113 73.5296 60.0762 73.9162 59.8151C74.3022 59.5552 74.7806 59.4246 75.3525 59.4246C76.8799 59.4246 77.7614 60.1724 77.9971 61.6667H81.4984C81.4481 60.8272 81.2468 60.1011 80.8939 59.4883C80.5411 58.875 80.0831 58.3629 79.5213 57.9514C78.9583 57.5399 78.3207 57.2336 77.6067 57.0316C76.8933 56.8304 76.15 56.7297 75.3774 56.7297C74.32 56.7297 73.3786 56.9062 72.5557 57.259C71.7334 57.6113 71.036 58.1023 70.4653 58.7323C69.8939 59.3616 69.4621 60.1094 69.1685 60.9743C68.8742 61.8393 68.7271 62.775 68.7271 63.7826C68.7271 64.7565 68.8863 65.6508 69.2054 66.4654C69.5245 67.2801 69.9691 67.9813 70.5411 68.5692C71.1111 69.1565 71.8041 69.6132 72.6188 69.9418C73.4334 70.2686 74.3277 70.4323 75.3016 70.4323C77.0309 70.4323 78.45 69.9788 79.5583 69.0724C80.6665 68.166 81.3385 66.8476 81.5735 65.1183H78.1226C78.0054 65.9234 77.7156 66.566 77.2538 67.0444" fill="#B4B4B4"/>
<path fill-rule="evenodd" clip-rule="evenodd" d="M91.2963 65.1306C91.1956 65.6255 91.023 66.0714 90.7797 66.4656C90.5364 66.8606 90.209 67.1752 89.7975 67.4102C89.3854 67.6453 88.8778 67.7631 88.274 67.7631C87.6695 67.7631 87.1657 67.6453 86.7625 67.4102C86.3593 67.1752 86.0351 66.8606 85.7918 66.4656C85.5491 66.0714 85.3765 65.6255 85.2765 65.1306C85.1752 64.6357 85.1256 64.1274 85.1256 63.6064C85.1256 63.086 85.1752 62.5733 85.2765 62.0701C85.3765 61.5656 85.5491 61.1211 85.7918 60.7351C86.0351 60.3485 86.3593 60.0338 86.7625 59.7899C87.1657 59.5465 87.6695 59.4249 88.274 59.4249C88.8778 59.4249 89.3854 59.5465 89.7975 59.7899C90.209 60.0338 90.5364 60.3485 90.7797 60.7351C91.023 61.1211 91.1956 61.5656 91.2963 62.0701C91.3975 62.5733 91.4472 63.086 91.4472 63.6064C91.4472 64.1274 91.3975 64.6357 91.2963 65.1306M93.1861 58.6064C92.5975 58.0102 91.8886 57.5491 91.0574 57.2211C90.2256 56.8937 89.2975 56.73 88.274 56.73C87.2491 56.73 86.3249 56.8937 85.502 57.2211C84.6797 57.5491 83.9746 58.0102 83.3867 58.6064C82.7982 59.202 82.3453 59.9249 82.0262 60.7727C81.7071 61.6204 81.5479 62.5656 81.5479 63.6064C81.5479 64.6478 81.7071 65.5879 82.0262 66.4281C82.3453 67.2676 82.7982 67.9854 83.3867 68.5816C83.9746 69.1778 84.6797 69.6357 85.502 69.9542C86.3249 70.2733 87.2491 70.4325 88.274 70.4325C89.2975 70.4325 90.2256 70.2733 91.0574 69.9542C91.8886 69.6357 92.5975 69.1778 93.1861 68.5816C93.7733 67.9854 94.2275 67.2676 94.5466 66.4281C94.865 65.5879 95.0249 64.6478 95.0249 63.6064C95.0249 62.5656 94.865 61.6204 94.5466 60.7727C94.2275 59.9249 93.7733 59.202 93.1861 58.6064" fill="#B4B4B4"/>
<path fill-rule="evenodd" clip-rule="evenodd" d="M114.371 57.7877C113.95 57.4183 113.446 57.1495 112.859 56.9813C112.271 56.8144 111.633 56.7297 110.945 56.7297C110.038 56.7297 109.253 56.9482 108.59 57.3845C107.925 57.8215 107.402 58.3259 107.015 58.896C106.662 58.0902 106.146 57.5278 105.466 57.2081C104.785 56.8896 104.034 56.7297 103.211 56.7297C102.355 56.7297 101.594 56.9151 100.932 57.2839C100.268 57.6533 99.7012 58.1737 99.2311 58.8457H99.1808V57.0826H95.8057V70.1049H99.3827V62.5488C99.3827 61.9106 99.4745 61.3941 99.6592 60.9992C99.8439 60.6049 100.067 60.3023 100.327 60.0922C100.587 59.8826 100.856 59.7393 101.134 59.6641C101.41 59.589 101.633 59.5514 101.801 59.5514C102.371 59.5514 102.804 59.6476 103.098 59.8412C103.392 60.0336 103.602 60.2902 103.728 60.6094C103.853 60.9285 103.925 61.2769 103.942 61.6539C103.958 62.0323 103.967 62.4144 103.967 62.8004V70.1049H107.544V62.8508C107.544 62.4476 107.573 62.0488 107.632 61.6539C107.691 61.2597 107.808 60.9068 107.985 60.5966C108.161 60.2858 108.404 60.0336 108.715 59.8412C109.025 59.6476 109.434 59.5514 109.937 59.5514C110.441 59.5514 110.839 59.6348 111.134 59.803C111.427 59.9711 111.65 60.1979 111.801 60.4826C111.952 60.7686 112.045 61.1043 112.078 61.4902C112.111 61.8769 112.128 62.2883 112.128 62.7253V70.1049H115.706V61.3896C115.706 60.5501 115.587 59.8323 115.353 59.2355C115.117 58.6399 114.79 58.1571 114.371 57.7877" fill="#B4B4B4"/>
<path fill-rule="evenodd" clip-rule="evenodd" d="M116.636 70.1046H119.016V67.7695H116.636V70.1046Z" fill="#B4B4B4"/>
<path fill-rule="evenodd" clip-rule="evenodd" d="M128.269 65.0671C128.269 65.2683 128.248 65.5378 128.206 65.8741C128.164 66.2097 128.051 66.5403 127.866 66.8683C127.68 67.1957 127.396 67.4773 127.01 67.7117C126.623 67.9473 126.078 68.0645 125.373 68.0645C125.086 68.0645 124.809 68.039 124.541 67.9894C124.273 67.939 124.037 67.8505 123.836 67.725C123.635 67.5989 123.475 67.4269 123.357 67.2085C123.24 66.9906 123.18 66.7218 123.18 66.4027C123.18 66.0664 123.24 65.7894 123.357 65.5715C123.475 65.3531 123.63 65.1722 123.823 65.0295C124.016 64.8875 124.243 64.7741 124.503 64.6894C124.763 64.6053 125.028 64.5384 125.297 64.4881C125.582 64.4378 125.867 64.3957 126.153 64.3626C126.438 64.3289 126.712 64.2862 126.972 64.2359C127.232 64.1855 127.476 64.1231 127.701 64.0467C127.929 63.9715 128.119 63.8671 128.269 63.732V65.0671ZM131.846 67.2085V60.4327C131.846 59.6435 131.67 59.0091 131.317 58.5308C130.964 58.0518 130.512 57.6785 129.957 57.4097C129.403 57.1416 128.789 56.9607 128.119 56.8683C127.446 56.776 126.783 56.7295 126.128 56.7295C125.405 56.7295 124.688 56.8008 123.975 56.9435C123.261 57.0868 122.618 57.3263 122.047 57.6613C121.477 57.9976 121.006 58.4429 120.637 58.997C120.267 59.5511 120.057 60.248 120.007 61.0875H123.584C123.651 60.3824 123.886 59.8785 124.289 59.576C124.692 59.2734 125.246 59.1231 125.951 59.1231C126.27 59.1231 126.569 59.1441 126.846 59.1862C127.123 59.2276 127.366 59.3117 127.576 59.4371C127.786 59.5633 127.954 59.7397 128.08 59.9664C128.206 60.1932 128.269 60.4996 128.269 60.8862C128.286 61.2556 128.177 61.5371 127.942 61.7301C127.706 61.9225 127.387 62.0703 126.984 62.1709C126.582 62.2715 126.119 62.3467 125.599 62.3976C125.078 62.448 124.549 62.5148 124.012 62.5989C123.475 62.683 122.942 62.7964 122.413 62.9384C121.884 63.0824 121.414 63.2957 121.002 63.5811C120.59 63.8671 120.254 64.2486 119.994 64.7276C119.734 65.2059 119.604 65.8148 119.604 66.5537C119.604 67.2257 119.717 67.8053 119.944 68.2913C120.17 68.7785 120.486 69.1817 120.889 69.5008C121.292 69.8199 121.761 70.055 122.299 70.2059C122.836 70.3575 123.415 70.4327 124.037 70.4327C124.843 70.4327 125.632 70.3148 126.405 70.0798C127.177 69.8454 127.849 69.434 128.42 68.8461C128.436 69.0639 128.466 69.2779 128.508 69.4875C128.55 69.6983 128.605 69.9034 128.672 70.1047H132.3C132.131 69.8365 132.014 69.434 131.947 68.8964C131.88 68.3594 131.846 67.7957 131.846 67.2085V67.2085Z" fill="#B4B4B4"/>
<path fill-rule="evenodd" clip-rule="evenodd" d="M141.619 57.0823V63.909C141.619 65.2358 141.4 66.1886 140.965 66.7676C140.527 67.3472 139.822 67.6364 138.848 67.6364C137.993 67.6364 137.396 67.3721 137.06 66.8428C136.724 66.3141 136.556 65.5122 136.556 64.4377V57.0823H132.98V65.0925C132.98 65.8988 133.051 66.6332 133.193 67.2963C133.336 67.96 133.584 68.5224 133.936 68.9848C134.29 69.446 134.772 69.8033 135.384 70.0549C135.998 70.3065 136.783 70.4326 137.74 70.4326C138.496 70.4326 139.235 70.2644 139.957 69.9288C140.678 69.5937 141.267 69.0472 141.719 68.2918H141.795V70.1046H145.196V57.0823H141.619Z" fill="#B4B4B4"/>
<path fill-rule="evenodd" clip-rule="evenodd" d="M41.3081 29.0754H36.3585C35.689 29.0754 35.1406 29.6232 35.1406 30.2926V35.6022C35.1406 36.2716 35.689 36.8194 36.3585 36.8194H41.3081C41.9782 36.8194 42.5253 36.2716 42.5253 35.6022V30.2926C42.5253 29.6232 41.9782 29.0754 41.3081 29.0754" fill="#B4B4B4"/>
<path fill-rule="evenodd" clip-rule="evenodd" d="M41.3081 63.1233H36.3585C35.689 63.1233 35.1406 63.6711 35.1406 64.3405V69.65C35.1406 70.3195 35.689 70.8672 36.3585 70.8672H41.3081C41.9782 70.8672 42.5253 70.3195 42.5253 69.65V64.3405C42.5253 63.6711 41.9782 63.1233 41.3081 63.1233" fill="#B4B4B4"/>
<path fill-rule="evenodd" clip-rule="evenodd" d="M25.6814 53.844V48.8937C25.6814 48.2243 25.1337 47.6765 24.4643 47.6765H19.1547C18.4853 47.6765 17.9375 48.2243 17.9375 48.8937V53.844C17.9375 54.5135 18.4853 55.0612 19.1547 55.0612H24.4643C25.1337 55.0612 25.6814 54.5135 25.6814 53.844" fill="#B4B4B4"/>
<path fill-rule="evenodd" clip-rule="evenodd" d="M58.5116 47.6765H53.2027C52.5326 47.6765 51.9849 48.2243 51.9849 48.8937V53.844C51.9849 54.5135 52.5326 55.0612 53.2027 55.0612H58.5116C59.1817 55.0612 59.7288 54.5135 59.7288 53.844V48.8937C59.7288 48.2243 59.1817 47.6765 58.5116 47.6765" fill="#B4B4B4"/>
<path fill-rule="evenodd" clip-rule="evenodd" d="M27.7829 58.2199C27.3096 57.7467 26.5345 57.7467 26.0612 58.2199L22.3071 61.9741C21.8338 62.448 21.8338 63.2225 22.3071 63.6957L25.8071 67.1964C26.281 67.6696 27.0555 67.6696 27.5294 67.1964L31.2835 63.4416C31.7568 62.9683 31.7568 62.1932 31.2835 61.7199L27.7829 58.2199Z" fill="#B4B4B4"/>
<path fill-rule="evenodd" clip-rule="evenodd" d="M49.8833 43.1203C50.3565 43.5942 51.1317 43.5942 51.6049 43.1203L55.3591 39.3661C55.8329 38.8929 55.8329 38.1177 55.3591 37.6445L51.8591 34.1445C51.3852 33.6712 50.6106 33.6712 50.1368 34.1445L46.3833 37.8986C45.91 38.3719 45.91 39.1464 46.3833 39.6203L49.8833 43.1203Z" fill="#B4B4B4"/>
<path fill-rule="evenodd" clip-rule="evenodd" d="M51.6049 58.2199C51.1317 57.7467 50.3565 57.7467 49.8833 58.2199L46.3833 61.7199C45.91 62.1932 45.91 62.9683 46.3833 63.4416L50.1368 67.1964C50.61 67.6696 51.3852 67.6696 51.8584 67.1964L55.3591 63.6957C55.8329 63.2225 55.8329 62.448 55.3591 61.9741L51.6049 58.2199Z" fill="#B4B4B4"/>
<path fill-rule="evenodd" clip-rule="evenodd" d="M27.5292 34.1442C27.056 33.671 26.2808 33.671 25.8076 34.1442L22.3076 37.6449C21.8343 38.1181 21.8343 38.8927 22.3076 39.3659L26.0611 43.12C26.5343 43.5939 27.3095 43.5939 27.7827 43.12L31.284 39.62C31.7573 39.1468 31.7573 38.3716 31.284 37.8984L27.5292 34.1442Z" fill="#B4B4B4"/>
</g>
</svg>
