<svg width="163" height="101" viewBox="0 0 163 101" fill="none" xmlns="http://www.w3.org/2000/svg">
<path fill-rule="evenodd" clip-rule="evenodd" d="M61.2001 44.0668V40.9561H48.2666V44.0668H52.7691V56.3459H48.2666V59.4561H61.2001V56.3459H56.2888V44.0668H61.2001Z" fill="#B4B4B4"/>
<path fill-rule="evenodd" clip-rule="evenodd" d="M82.6876 44.1894H77.5312V49.2647C77.5312 49.2647 80.3135 49.1831 82.6059 49.1831C84.8977 49.1831 85.4705 48.6919 85.4705 46.3995C85.4705 43.7805 82.6876 44.1894 82.6876 44.1894" fill="#B4B4B4"/>
<path fill-rule="evenodd" clip-rule="evenodd" d="M89.1547 54.9948V59.2517H85.4712V55.2403C85.4712 55.2403 85.4712 52.1302 83.3427 52.1302C81.2149 52.1302 77.5313 52.2119 77.5313 52.2119V59.3334H73.9288V40.9973H84.5706C84.5706 40.9973 89.1547 40.7517 89.1547 45.7448C89.1547 50.7384 86.3718 50.984 86.3718 50.984C86.3718 50.984 89.1547 51.1473 89.1547 54.9948V54.9948ZM67.7896 63.9176H94.5566V36.6593H67.7896V63.9176Z" fill="#B4B4B4"/>
<path fill-rule="evenodd" clip-rule="evenodd" d="M99.4688 40.9971V44.0262H102.007V56.3863H99.4688V59.4154H115.104V53.4395H111.993V56.3863H105.362V51.3933H110.274V48.3642H105.362V44.0262H111.747V46.9724H115.104V40.9971H99.4688Z" fill="#B4B4B4"/>
<path fill-rule="evenodd" clip-rule="evenodd" d="M136.386 44.1077H130.82V56.3862H136.632C139.415 56.3862 139.496 52.7843 139.496 52.7843V48.0368C139.496 43.8615 136.386 44.1077 136.386 44.1077" fill="#B4B4B4"/>
<path fill-rule="evenodd" clip-rule="evenodd" d="M136.796 59.5789C130.084 59.5789 127.055 59.6606 127.055 59.6606V41.0789H134.994C134.994 41.0789 143.181 40.1789 143.181 47.546V52.703C143.181 52.703 143.507 59.5789 136.796 59.5789V59.5789ZM121.079 63.9169H147.846V36.6587H121.079V63.9169Z" fill="#B4B4B4"/>
<path fill-rule="evenodd" clip-rule="evenodd" d="M35.5383 59.4153H30.9541L28.0073 46.0722L24.8149 59.4969H20.313L16.5471 41.0792H20.2307L22.7687 55.0773L26.0427 41.0792L30.0535 41.1615L33.3282 55.3222L35.7839 41.0792H39.3035L35.5383 59.4153ZM14.2554 63.9172H41.0225V36.6589H14.2554V63.9172Z" fill="#B4B4B4"/>
<mask id="mask0_0_50" style="mask-type:luminance" maskUnits="userSpaceOnUse" x="0" y="0" width="163" height="100">
<path fill-rule="evenodd" clip-rule="evenodd" d="M0 99.9429H162.101V0.632812H0V99.9429Z" fill="white"/>
</mask>
<g mask="url(#mask0_0_50)">
</g>
</svg>
