<svg width="164" height="100" viewBox="0 0 164 100" fill="none" xmlns="http://www.w3.org/2000/svg">
<path fill-rule="evenodd" clip-rule="evenodd" d="M53.5014 57.9512C52.8779 57.8098 52.3791 57.7932 51.9912 57.6869H51.9906C51.8511 57.6487 51.7256 57.599 51.6135 57.5276C51.4435 57.4334 51.3008 57.2735 51.2091 56.3442L47.1409 56.3448C47.0639 57.2913 46.9492 57.4518 46.7976 57.5276C46.6734 57.5996 46.5422 57.6493 46.3989 57.6869H51.1581L46.3989 57.6882C46.0836 57.7722 45.711 57.8003 45.2416 57.8799C44.7728 57.8003 44.3995 57.7722 44.0842 57.6869H44.0817C43.939 57.6487 43.8084 57.599 43.6862 57.5276C43.5728 57.471 43.4811 57.1608 43.4091 56.3442C43.325 55.3856 43.2702 53.7302 43.2435 50.9703C43.2352 50.171 43.2295 49.2786 43.2269 48.2837L39.3135 48.285C39.3346 49.2805 39.3486 50.1722 39.3556 50.9703H40.3123L39.3556 50.971C39.3817 53.7423 39.325 55.3881 39.2059 56.3429C39.1072 57.1257 38.9664 57.4404 38.7925 57.5276C38.6804 57.599 38.59 57.6487 38.5008 57.6869H39.3327H38.5008C38.2543 57.7932 38.0186 57.8098 37.367 57.9512C37.0594 58.0283 37.1365 58.4136 37.3288 58.3754C38.446 58.2983 39.4868 58.2595 41.2588 58.2595C42.6454 58.2595 43.7925 58.2799 44.7002 58.3194C45.2116 58.3334 45.232 58.3334 45.783 58.3194C46.6912 58.2799 47.8377 58.2595 49.2237 58.2595C50.9963 58.2595 52.4225 58.2983 53.5397 58.3754C53.732 58.4136 53.8091 58.0283 53.5014 57.9512" fill="#B4B4B4"/>
<path fill-rule="evenodd" clip-rule="evenodd" d="M120.352 58.7218C121.637 58.7218 122.93 58.3352 124.032 57.6874L115.87 57.6868C117.095 58.3479 118.591 58.7218 120.352 58.7218" fill="#B4B4B4"/>
<path fill-rule="evenodd" clip-rule="evenodd" d="M60.8867 58.7218C62.1128 58.7218 63.2147 58.311 64.1644 57.6868L57.0542 57.6874C58.1287 58.3549 59.4198 58.7218 60.8867 58.7218" fill="#B4B4B4"/>
<path fill-rule="evenodd" clip-rule="evenodd" d="M104.415 58.7218C105.7 58.7218 106.993 58.3352 108.096 57.6874L99.9326 57.6868C101.158 58.3479 102.654 58.7218 104.415 58.7218" fill="#B4B4B4"/>
<path fill-rule="evenodd" clip-rule="evenodd" d="M146.733 57.9512C146.025 57.8098 145.712 57.7932 145.321 57.6868H144.395H145.321C145.18 57.6486 145.029 57.5989 144.845 57.5276C144.644 57.4607 144.189 57.0333 143.546 56.3429H143.546C142.443 55.1569 140.786 53.2002 138.917 50.9703C138.193 50.1066 137.437 49.2015 136.668 48.2843L135.299 48.2836H136.668C136.581 48.1805 136.494 48.0766 136.407 47.9722C139.699 44.7836 141.342 43.3951 142.288 42.911L138.946 42.9104C139.102 43.083 139.142 43.2524 139.142 43.3868C139.142 43.734 137.832 45.3136 135.097 48.0875C135.029 48.1556 134.96 48.2206 134.89 48.2836C134.327 48.7926 133.706 49.1276 133.055 49.1276V48.2836H129.231C129.227 49.2843 129.22 50.176 129.211 50.9703C129.181 53.8512 129.127 55.448 129.053 56.3435L133.209 56.3442C133.125 55.32 133.086 53.5875 133.062 50.9703C133.06 50.6754 133.057 50.3696 133.055 50.0531C133.581 50.1505 133.938 50.3614 134.533 50.9709H134.534C134.637 51.0766 134.747 51.1938 134.865 51.3244C136.927 53.6938 138.212 55.3747 138.85 56.3442C139.165 56.8244 139.322 57.1301 139.336 57.2575C139.336 57.4397 139.292 57.5786 139.104 57.6868H139.103C138.893 57.8079 138.504 57.89 137.794 57.9512C137.525 57.99 137.601 58.4136 137.794 58.3754C138.757 58.2983 140.453 58.2594 142.379 58.2594C144.267 58.2594 145.77 58.2983 146.733 58.3754C146.926 58.4136 147.08 58.0282 146.733 57.9512" fill="#B4B4B4"/>
<path fill-rule="evenodd" clip-rule="evenodd" d="M24.4982 57.9511C23.8473 57.8097 23.5498 57.7931 23.2536 57.6868C23.1473 57.6486 23.0409 57.5989 22.9186 57.5275C22.767 57.4333 22.6995 57.274 22.6562 56.3441C22.6148 55.4568 22.5957 53.8696 22.5473 50.9702L18.6409 50.9709C18.6339 53.8562 18.5855 55.4511 18.5084 56.3441H21.7511L18.5084 56.3447C18.4269 57.2912 18.3122 57.4517 18.1798 57.5275C18.0575 57.5989 17.9269 57.6486 17.7842 57.6868H20.5192H17.7842C17.3893 57.7931 16.9046 57.8097 16.2536 57.9511C15.9441 58.0282 16.0218 58.4135 16.2142 58.3753C17.1778 58.2982 18.6798 58.2594 20.6071 58.2594C22.3791 58.2594 23.4199 58.2982 24.5371 58.3753C24.7294 58.4135 24.8065 58.0282 24.4982 57.9511" fill="#B4B4B4"/>
<path fill-rule="evenodd" clip-rule="evenodd" d="M135.174 57.9512C134.523 57.8098 134.162 57.7933 133.834 57.6869H131.089H133.834C133.715 57.6487 133.601 57.599 133.479 57.5277C133.356 57.4665 133.271 57.0952 133.208 56.3449L129.053 56.3442C128.971 57.3328 128.864 57.4646 128.739 57.5277C128.617 57.599 128.487 57.6487 128.344 57.6869C127.949 57.7933 127.464 57.8098 126.813 57.9512C126.543 58.0283 126.582 58.4137 126.774 58.3754C127.776 58.2984 129.125 58.2595 131.051 58.2595C132.824 58.2595 134.095 58.2984 135.213 58.3754C135.367 58.4137 135.444 58.0283 135.174 57.9512" fill="#B4B4B4"/>
<path fill-rule="evenodd" clip-rule="evenodd" d="M28.4676 57.5277C28.3453 57.599 28.2466 57.6487 28.1523 57.6869H30.9115H28.1523C27.8899 57.7933 27.6549 57.8098 27.0033 57.9512C26.695 58.0283 26.7721 58.4137 26.965 58.3754C28.0822 58.2984 29.1224 58.2595 30.895 58.2595C32.8211 58.2595 34.0542 58.2984 35.0173 58.3754C35.2096 58.4137 35.2873 58.0283 34.9791 57.9512C34.3275 57.8098 33.9886 57.7933 33.6708 57.6869H33.6701C33.5561 57.6487 33.444 57.599 33.3217 57.5277C33.2128 57.4653 33.1173 57.2149 33.0408 56.3442H28.8644C28.767 57.1309 28.6281 57.4398 28.4676 57.5277" fill="#B4B4B4"/>
<path fill-rule="evenodd" clip-rule="evenodd" d="M65.8179 55.4849C65.4835 55.8034 65.0963 56.1028 64.6765 56.3435H64.9141L64.6765 56.3442C64.0797 56.6856 63.4148 56.9104 62.7358 56.9104C61.9523 56.9104 61.2555 56.7091 60.6523 56.3448C59.0995 55.4066 58.167 53.3919 57.9625 50.9703L55.4963 50.9696H57.9625C57.9339 50.6327 57.9198 50.2881 57.9198 49.9372C57.9198 49.3531 57.9351 48.8015 57.9683 48.2836C58.1517 45.3958 58.8759 43.5531 60.4746 42.9104L57.8963 42.9117C55.8313 44.0422 54.3033 45.941 53.7517 48.2836C53.6046 48.9079 53.5269 49.5645 53.5269 50.2454C53.5269 50.4907 53.5339 50.7321 53.5472 50.9703C53.6714 53.1486 54.3587 54.9977 55.5001 56.3442C55.9498 56.8735 56.4702 57.3251 57.0542 57.6875L64.1638 57.6868C64.7466 57.304 65.2727 56.8416 65.7339 56.3442H65.7345C65.8434 56.225 65.9479 56.1066 66.0491 55.9862C66.088 55.948 66.3581 56.0251 66.3581 56.1403C66.3632 56.2072 66.3708 56.2747 66.3784 56.3435C66.4288 56.7805 66.5135 57.2543 66.609 57.6868H69.0421H66.609C66.6893 58.0505 66.7772 58.3856 66.8587 58.6448C66.8963 58.8378 67.0893 58.9149 67.2058 58.8378C68.139 58.4378 70.053 58.0372 71.4759 57.6868H71.4765C71.6969 57.6327 71.9071 57.5792 72.0982 57.5276C72.2912 57.4887 72.4071 57.1805 72.06 57.1805C71.0581 57.1805 70.8269 56.9499 70.4797 56.5639C70.439 56.5091 70.4001 56.4435 70.3644 56.3442C70.2058 55.8983 70.1084 54.7817 70.1307 50.9709L66.3084 50.9703L66.2415 54.5219C66.2415 54.9461 66.1262 55.1391 65.8179 55.4849" fill="#B4B4B4"/>
<path fill-rule="evenodd" clip-rule="evenodd" d="M47.2585 50.9709C47.2527 53.8562 47.2132 55.4511 47.1406 56.3441L51.2094 56.3428C51.1215 55.4556 51.0801 53.8689 51.1043 50.9702L47.2585 50.9709Z" fill="#B4B4B4"/>
<path fill-rule="evenodd" clip-rule="evenodd" d="M118.162 42.9107H118.163C118.682 42.4966 119.346 42.2699 120.198 42.2699C120.881 42.2699 121.41 42.5132 121.816 42.9113H121.816C122.807 43.8839 123.055 45.775 122.972 47.2782C122.972 47.3559 120.698 47.317 120.43 47.317C117.963 47.3559 117.347 47.3941 116.384 47.3941C116.642 45.3559 117.107 43.7495 118.162 42.9107M126.324 54.638C125.64 55.4998 124.268 56.11 122.862 56.3438H122.856C122.442 56.4132 122.026 56.4489 121.624 56.4489C121.209 56.4489 120.819 56.4132 120.452 56.3431H120.45C117.926 55.8616 116.545 53.7909 116.251 50.9712H113.467L116.251 50.9705C116.211 50.5884 116.191 50.1915 116.191 49.7833C116.191 49.0431 116.191 48.8189 116.279 48.2852L113.686 48.2845L116.279 48.2839C116.288 48.2349 116.296 48.182 116.307 48.1259C117.27 48.0871 117.772 48.0871 120.43 48.0871C123.858 48.0871 126.826 48.2801 127.095 47.6642C127.445 46.8903 126.953 44.4973 124.991 42.91H124.989C123.923 42.047 122.424 41.4221 120.391 41.4221C118.489 41.4221 116.785 41.9635 115.405 42.9107H115.404C113.631 44.1291 112.395 46.0157 111.965 48.2839C111.856 48.8635 111.798 49.4673 111.798 50.0909C111.798 50.3884 111.809 50.682 111.832 50.9712C111.995 53.0896 112.756 54.9673 114.09 56.3438C114.6 56.8699 115.194 57.3215 115.87 57.6871H124.033C124.663 57.317 125.232 56.8616 125.7 56.3438H125.701C126.109 55.8928 126.44 55.3966 126.671 54.8693C126.787 54.5992 126.402 54.4833 126.324 54.638" fill="#B4B4B4"/>
<path fill-rule="evenodd" clip-rule="evenodd" d="M66.319 50.3996L66.3081 50.9703H70.1304C70.1311 50.8353 70.1323 50.6958 70.133 50.5538L70.1521 48.2837H66.2871C66.3151 48.8971 66.3266 49.5971 66.319 50.3996" fill="#B4B4B4"/>
<path fill-rule="evenodd" clip-rule="evenodd" d="M107.035 47.2784C107.035 47.3555 104.762 47.3173 104.493 47.3173C102.026 47.3555 101.41 47.3943 100.447 47.3943C100.705 45.3561 101.17 43.7491 102.224 42.9109H102.226C102.746 42.4969 103.409 42.2701 104.261 42.2701C104.943 42.2701 105.473 42.5134 105.879 42.9115C106.87 43.8835 107.117 45.7752 107.035 47.2784M109.053 42.9096H109.052C107.986 42.0472 106.487 41.4224 104.454 41.4224C102.552 41.4224 100.847 41.9638 99.4683 42.9109H99.4671C97.6944 44.1287 96.4581 46.016 96.0282 48.2841C95.9187 48.8638 95.8613 49.4676 95.8613 50.0912C95.8613 50.3886 95.8728 50.6816 95.8951 50.9708C96.0581 53.0899 96.818 54.9676 98.153 56.344C98.6626 56.8695 99.2562 57.3217 99.9327 57.6867H108.096C108.726 57.3166 109.295 56.8612 109.763 56.344H109.764C110.172 55.8931 110.502 55.3969 110.734 54.8689C110.85 54.5994 110.465 54.4835 110.388 54.6376C109.703 55.5001 108.33 56.1103 106.924 56.344H106.918C106.505 56.4128 106.089 56.4491 105.687 56.4491C105.272 56.4491 104.882 56.4128 104.515 56.3434H104.512C101.989 55.8619 100.608 53.7905 100.314 50.9708H97.5301L100.314 50.9701C100.274 50.588 100.254 50.1918 100.254 49.7829C100.254 49.0434 100.254 48.8185 100.342 48.2848L97.7486 48.2841H100.342C100.351 48.2345 100.36 48.1822 100.37 48.1262C101.333 48.0873 101.834 48.0873 104.493 48.0873C107.922 48.0873 110.889 48.2803 111.158 47.6638C111.507 46.8899 111.015 44.4975 109.053 42.9096" fill="#B4B4B4"/>
<path fill-rule="evenodd" clip-rule="evenodd" d="M33.245 45.6606C34.1692 44.6199 34.9016 44.1192 36.4813 44.1192C38.5622 44.1192 39.2169 45.4294 39.294 47.4326C39.301 47.725 39.3074 48.009 39.3131 48.2842L43.2271 48.2836C43.2252 47.6562 43.2239 46.988 43.2239 46.2765C43.2239 44.9148 42.8902 43.7396 42.1329 42.9109L35.1717 42.9116C34.3768 43.5103 33.6316 44.2765 32.9367 45.1211C32.8978 45.1593 32.6284 45.1211 32.5895 44.967C32.4023 44.2173 32.0118 43.4988 31.4609 42.9109H24.6099C23.887 43.5039 23.1908 44.2396 22.4953 45.0441C22.4564 45.1211 22.1481 45.0441 22.1481 44.9288C22.1647 44.3173 22.2023 43.5848 22.2462 42.9109C22.3042 42.0154 22.3736 41.2237 22.4176 40.9593C22.4176 40.8052 22.2252 40.5746 21.994 40.767C21.1462 41.4294 19.7889 42.2734 18.4227 42.9109H21.1335L18.4227 42.9116C17.8016 43.202 17.1781 43.4498 16.5997 43.6179C16.4456 43.6568 16.3297 43.9269 16.6386 43.9651C17.5634 44.0422 17.8329 44.1963 18.18 44.5052C18.5048 44.7976 18.6099 45.3371 18.6354 48.2842C18.6399 48.8262 18.6418 49.4498 18.6418 50.1683C18.6418 50.4466 18.6411 50.7141 18.6405 50.9702L22.5469 50.9695C22.5424 50.7129 22.5379 50.446 22.5335 50.1683L22.4946 48.2842L22.4564 46.4307C22.4564 45.9683 22.5717 45.7759 22.8806 45.4294C23.7284 44.4275 24.6526 44.0039 26.1169 44.0039C28.1201 44.0039 28.8526 45.0829 28.9297 47.5097C28.9367 47.774 28.9437 48.032 28.9507 48.2842C28.9768 49.2804 28.994 50.1721 29.0042 50.9702C29.0386 53.7543 28.9813 55.3957 28.8641 56.3441L33.0405 56.3434C32.9602 55.4205 32.9016 53.8014 32.8755 50.9702C32.8679 50.1746 32.8628 49.2829 32.8609 48.2842C32.8602 47.8765 32.8596 47.4523 32.8596 47.0084V46.6625C32.8596 46.2383 32.9367 46.0071 33.245 45.6606" fill="#B4B4B4"/>
<path fill-rule="evenodd" clip-rule="evenodd" d="M133.103 42.9105L133.209 31.3659C133.209 30.9417 133.247 29.092 133.401 28.5914C133.439 28.4372 133.247 28.1678 133.016 28.3219C131.474 29.285 128.894 30.4793 126.89 31.0188C126.697 31.0576 126.62 31.3264 126.929 31.3659C127.853 31.4812 128.392 31.6353 128.739 31.8665C129.111 32.0895 129.232 33.2098 129.24 42.9111C129.241 43.264 129.241 43.6277 129.241 44.0035C129.241 45.6162 129.238 47.0347 129.231 48.2831L133.055 48.2837V48.1258L133.103 42.9105Z" fill="#B4B4B4"/>
<path fill-rule="evenodd" clip-rule="evenodd" d="M45.2947 43.695C46.1807 43.8497 46.4501 44.0803 46.7972 44.4274C47.1227 44.7529 47.2278 45.3262 47.2527 48.2841C47.2578 48.8268 47.2597 49.451 47.2597 50.1682C47.2597 50.4466 47.259 50.7141 47.2584 50.9701L51.1043 50.9695C51.1068 50.7128 51.1094 50.4459 51.1125 50.1682L51.1374 48.2841L51.1896 44.3115C51.1896 43.8287 51.1947 43.351 51.2017 42.9109H46.7221C46.1979 43.1064 45.6851 43.2606 45.2176 43.3491C45.0629 43.3873 44.9864 43.6179 45.2947 43.695" fill="#B4B4B4"/>
<path fill-rule="evenodd" clip-rule="evenodd" d="M48.9547 36.914C50.5732 36.914 51.4592 35.8738 51.4592 34.4859C51.4592 33.0993 50.4573 32.0974 49.1477 32.0974C47.6445 32.0974 46.5273 33.0993 46.5273 34.7178C46.5273 35.9891 47.5675 36.914 48.9547 36.914" fill="#B4B4B4"/>
<path fill-rule="evenodd" clip-rule="evenodd" d="M137.062 42.1922C138.169 42.3572 138.7 42.6381 138.946 42.9101L142.288 42.9107C142.406 42.8508 142.513 42.805 142.61 42.7706C143.381 42.5011 143.881 42.3852 144.806 42.2699C145.114 42.2311 144.96 41.8464 144.806 41.8464C143.804 41.9234 143.612 41.9234 141.686 41.9234C139.758 41.9234 138.063 41.8846 137.062 41.7693C136.869 41.7693 136.792 42.154 137.062 42.1922" fill="#B4B4B4"/>
<path fill-rule="evenodd" clip-rule="evenodd" d="M28.1201 41.4604C26.829 41.4604 25.6888 42.0267 24.6099 42.9108L31.4608 42.9101C30.6519 42.0464 29.4946 41.4604 28.1201 41.4604" fill="#B4B4B4"/>
<path fill-rule="evenodd" clip-rule="evenodd" d="M50.8426 40.7673C49.9222 41.4004 48.2699 42.3341 46.7222 42.9106H51.2018C51.2164 42.0844 51.2413 41.3889 51.2668 41.0367C51.2668 40.8825 51.0738 40.6131 50.8426 40.7673" fill="#B4B4B4"/>
<path fill-rule="evenodd" clip-rule="evenodd" d="M98.0639 42.1923C98.3721 42.1152 98.2568 41.7305 98.0639 41.7693C97.0619 41.8846 96.9467 41.9235 95.0199 41.9235C93.132 41.9235 91.8225 41.8846 90.8205 41.7693C90.6275 41.7305 90.5505 42.154 90.8205 42.1923C92.2225 42.3795 93.0702 42.5916 93.3428 42.9107H93.3435C93.4072 42.9859 93.4396 43.0674 93.4396 43.1559C93.4396 43.6757 92.932 45.3343 91.8568 48.284H92.8358L91.8568 48.2846C91.5658 49.084 91.2326 49.9776 90.8581 50.97H90.8575C90.5632 51.7464 90.2428 52.584 89.8957 53.4821C89.6218 52.5891 89.3543 51.7521 89.097 50.9706C88.7721 49.9865 88.4645 49.0916 88.1798 48.284C87.1517 45.3604 86.4416 43.5903 86.4301 42.9107C86.4288 42.8177 86.4403 42.7451 86.4664 42.6935C86.6594 42.3082 87.9307 42.4241 88.7396 42.1923C89.0091 42.1152 88.932 41.7305 88.7396 41.7693C87.7377 41.8846 85.7346 41.9235 83.8078 41.9235C81.8428 41.9235 81.111 41.8846 80.0702 41.7693C79.9167 41.7693 79.7626 42.1152 80.0702 42.1923C81.0721 42.3852 81.2651 42.3852 81.8046 42.6553C81.8747 42.6935 81.9568 42.7795 82.0492 42.9107H82.0498C82.5161 43.5661 83.2556 45.3375 84.1543 47.7795C84.0772 47.9496 83.9995 48.1165 83.9231 48.2833H83.9225C83.5225 49.1483 83.1263 49.9852 82.6626 50.9706C82.2435 51.8617 81.7696 52.8738 81.1881 54.1368C80.7632 53.019 80.3486 51.9598 79.9537 50.9706H79.953C79.5683 50.005 79.2027 49.1069 78.8664 48.284C77.7358 45.5133 76.9454 43.6044 76.8906 42.9107H73.3842L76.8906 42.9101C76.883 42.8145 76.89 42.7419 76.911 42.6935C77.104 42.3082 77.797 42.4241 78.5677 42.1923C78.876 42.1152 78.7989 41.7305 78.5677 41.7693C77.6046 41.8846 75.9473 41.9235 73.9823 41.9235C72.0785 41.9235 71.2282 41.8852 70.204 41.7731L70.2881 31.3655C70.2881 30.9419 70.3256 29.0923 70.4798 28.5916C70.5193 28.4375 70.3256 28.1674 70.0951 28.3222C68.5543 29.2852 65.9721 30.4795 63.9689 31.019C63.776 31.0579 63.6989 31.3266 64.0072 31.3655C64.932 31.4814 65.4715 31.6356 65.818 31.8668C66.204 32.098 66.3186 32.8298 66.3186 42.347C66.3186 42.5012 66.1263 42.5394 65.9721 42.5012C64.8167 41.9999 64.1231 41.7693 62.4658 41.7693C60.797 41.7693 59.2339 42.1789 57.897 42.9107L60.4747 42.9101C60.8957 42.7413 61.3779 42.6553 61.9269 42.6553C62.483 42.6553 63.0078 42.7413 63.4906 42.9107C64.0785 43.1158 64.6033 43.4438 65.0479 43.8878C65.7078 44.5477 66.1626 45.5668 66.2868 48.2833L70.1517 48.284L70.1951 42.9107L70.2008 42.1986C71.1817 42.3859 71.7161 42.4266 72.2874 42.6553C72.3619 42.6827 72.4518 42.7693 72.5562 42.9107C73.067 43.6056 73.9174 45.6126 74.9619 48.284H77.7053L74.9619 48.2846C75.2893 49.1216 75.6358 50.0235 75.997 50.9706L76.7728 50.9712H75.997C76.6384 52.6553 77.3269 54.4827 78.0377 56.3438H78.0384C78.2084 56.7903 78.3804 57.2394 78.553 57.6872L79.3753 57.6878L78.553 57.6884C78.6855 58.033 78.8193 58.3776 78.9524 58.7222C79.0301 58.9534 79.9543 59.0305 80.1097 58.6833C80.239 58.3591 80.3753 58.0273 80.5161 57.6884H80.5167C80.7008 57.247 80.8938 56.7967 81.0925 56.3438L79.5645 56.3432L81.0925 56.3426C81.9027 54.4865 82.8027 52.5693 83.576 50.9719H83.5766C83.9314 50.2388 84.2594 49.5731 84.5396 49.0126C84.7568 49.6209 84.9823 50.2789 85.2142 50.9706L87.3225 50.9712L85.2142 50.9719C85.7702 52.6311 86.3632 54.4891 86.976 56.3438H87.3377H86.976C87.1237 56.7923 87.2734 57.2407 87.4237 57.6872C87.5409 58.0343 87.6581 58.3802 87.7766 58.7222C87.8537 58.9534 88.8167 59.0305 88.932 58.6833C89.0537 58.3509 89.1753 58.019 89.2963 57.6884H89.297C89.4626 57.2375 89.6282 56.7891 89.7938 56.3445H89.7944C90.5002 54.4483 91.1963 52.6292 91.8575 50.9712C92.2384 50.0171 92.6072 49.1158 92.9588 48.284H92.9594C94.1014 45.5884 95.0734 43.6177 95.7129 42.9107H93.8804L95.7129 42.9101C95.8263 42.784 95.9295 42.698 96.0218 42.6553C96.5995 42.3852 97.1008 42.4241 98.0639 42.1923" fill="#B4B4B4"/>
<path fill-rule="evenodd" clip-rule="evenodd" d="M38.6005 41.6143C37.37 41.6143 36.2267 42.1155 35.1719 42.9104L42.133 42.9098C41.3903 42.0958 40.2407 41.6143 38.6005 41.6143" fill="#B4B4B4"/>
<mask id="mask0_0_67" style="mask-type:luminance" maskUnits="userSpaceOnUse" x="0" y="0" width="164" height="100">
<path fill-rule="evenodd" clip-rule="evenodd" d="M0 99.9427H163.134V0H0V99.9427Z" fill="white"/>
</mask>
<g mask="url(#mask0_0_67)">
</g>
</svg>
