<svg width="238" height="238" viewBox="0 0 238 238" fill="none" xmlns="http://www.w3.org/2000/svg">
<path fill-rule="evenodd" clip-rule="evenodd" d="M6.61111 3.30556C6.61111 5.13105 5.13105 6.61111 3.30556 6.61111C1.48006 6.61111 0 5.13105 0 3.30556C0 1.48006 1.48006 0 3.30556 0C5.13105 0 6.61111 1.48006 6.61111 3.30556" fill="white"/>
<path fill-rule="evenodd" clip-rule="evenodd" d="M39.6668 3.30556C39.6668 5.13105 38.1867 6.61111 36.3612 6.61111C34.5357 6.61111 33.0557 5.13105 33.0557 3.30556C33.0557 1.48006 34.5357 0 36.3612 0C38.1867 0 39.6668 1.48006 39.6668 3.30556" fill="white"/>
<path fill-rule="evenodd" clip-rule="evenodd" d="M72.7224 3.30556C72.7224 5.13105 71.2424 6.61111 69.4169 6.61111C67.5914 6.61111 66.1113 5.13105 66.1113 3.30556C66.1113 1.48006 67.5914 0 69.4169 0C71.2424 0 72.7224 1.48006 72.7224 3.30556" fill="white"/>
<path fill-rule="evenodd" clip-rule="evenodd" d="M105.778 3.30556C105.778 5.13105 104.298 6.61111 102.472 6.61111C100.647 6.61111 99.1665 5.13105 99.1665 3.30556C99.1665 1.48006 100.647 0 102.472 0C104.298 0 105.778 1.48006 105.778 3.30556" fill="white"/>
<path fill-rule="evenodd" clip-rule="evenodd" d="M138.833 3.30556C138.833 5.13105 137.353 6.61111 135.528 6.61111C133.702 6.61111 132.222 5.13105 132.222 3.30556C132.222 1.48006 133.702 0 135.528 0C137.353 0 138.833 1.48006 138.833 3.30556" fill="white"/>
<path fill-rule="evenodd" clip-rule="evenodd" d="M171.889 3.30556C171.889 5.13105 170.409 6.61111 168.583 6.61111C166.758 6.61111 165.278 5.13105 165.278 3.30556C165.278 1.48006 166.758 0 168.583 0C170.409 0 171.889 1.48006 171.889 3.30556" fill="white"/>
<path fill-rule="evenodd" clip-rule="evenodd" d="M204.945 3.30556C204.945 5.13105 203.465 6.61111 201.639 6.61111C199.814 6.61111 198.333 5.13105 198.333 3.30556C198.333 1.48006 199.814 0 201.639 0C203.465 0 204.945 1.48006 204.945 3.30556" fill="white"/>
<path fill-rule="evenodd" clip-rule="evenodd" d="M238 3.30556C238 5.13105 236.52 6.61111 234.694 6.61111C232.869 6.61111 231.389 5.13105 231.389 3.30556C231.389 1.48006 232.869 0 234.694 0C236.52 0 238 1.48006 238 3.30556" fill="white"/>
<path fill-rule="evenodd" clip-rule="evenodd" d="M6.61111 36.3611C6.61111 38.1866 5.13105 39.6667 3.30556 39.6667C1.48006 39.6667 0 38.1866 0 36.3611C0 34.5356 1.48006 33.0555 3.30556 33.0555C5.13105 33.0555 6.61111 34.5356 6.61111 36.3611" fill="white"/>
<path fill-rule="evenodd" clip-rule="evenodd" d="M39.6668 36.3611C39.6668 38.1866 38.1867 39.6667 36.3612 39.6667C34.5357 39.6667 33.0557 38.1866 33.0557 36.3611C33.0557 34.5356 34.5357 33.0555 36.3612 33.0555C38.1867 33.0555 39.6668 34.5356 39.6668 36.3611" fill="white"/>
<path fill-rule="evenodd" clip-rule="evenodd" d="M72.7224 36.3611C72.7224 38.1866 71.2424 39.6667 69.4169 39.6667C67.5914 39.6667 66.1113 38.1866 66.1113 36.3611C66.1113 34.5356 67.5914 33.0555 69.4169 33.0555C71.2424 33.0555 72.7224 34.5356 72.7224 36.3611" fill="white"/>
<path fill-rule="evenodd" clip-rule="evenodd" d="M105.778 36.3611C105.778 38.1866 104.298 39.6667 102.472 39.6667C100.647 39.6667 99.1665 38.1866 99.1665 36.3611C99.1665 34.5356 100.647 33.0555 102.472 33.0555C104.298 33.0555 105.778 34.5356 105.778 36.3611" fill="white"/>
<path fill-rule="evenodd" clip-rule="evenodd" d="M138.833 36.3611C138.833 38.1866 137.353 39.6667 135.528 39.6667C133.702 39.6667 132.222 38.1866 132.222 36.3611C132.222 34.5356 133.702 33.0555 135.528 33.0555C137.353 33.0555 138.833 34.5356 138.833 36.3611" fill="white"/>
<path fill-rule="evenodd" clip-rule="evenodd" d="M171.889 36.3611C171.889 38.1866 170.409 39.6667 168.583 39.6667C166.758 39.6667 165.278 38.1866 165.278 36.3611C165.278 34.5356 166.758 33.0555 168.583 33.0555C170.409 33.0555 171.889 34.5356 171.889 36.3611" fill="white"/>
<path fill-rule="evenodd" clip-rule="evenodd" d="M204.945 36.3611C204.945 38.1866 203.465 39.6667 201.639 39.6667C199.814 39.6667 198.333 38.1866 198.333 36.3611C198.333 34.5356 199.814 33.0555 201.639 33.0555C203.465 33.0555 204.945 34.5356 204.945 36.3611" fill="white"/>
<path fill-rule="evenodd" clip-rule="evenodd" d="M238 36.3611C238 38.1866 236.52 39.6667 234.694 39.6667C232.869 39.6667 231.389 38.1866 231.389 36.3611C231.389 34.5356 232.869 33.0555 234.694 33.0555C236.52 33.0555 238 34.5356 238 36.3611" fill="white"/>
<path fill-rule="evenodd" clip-rule="evenodd" d="M6.61111 69.4167C6.61111 71.2422 5.13105 72.7222 3.30556 72.7222C1.48006 72.7222 0 71.2422 0 69.4167C0 67.5912 1.48006 66.1111 3.30556 66.1111C5.13105 66.1111 6.61111 67.5912 6.61111 69.4167" fill="white"/>
<path fill-rule="evenodd" clip-rule="evenodd" d="M39.6668 69.4167C39.6668 71.2422 38.1867 72.7222 36.3612 72.7222C34.5357 72.7222 33.0557 71.2422 33.0557 69.4167C33.0557 67.5912 34.5357 66.1111 36.3612 66.1111C38.1867 66.1111 39.6668 67.5912 39.6668 69.4167" fill="white"/>
<path fill-rule="evenodd" clip-rule="evenodd" d="M72.7224 69.4167C72.7224 71.2422 71.2424 72.7222 69.4169 72.7222C67.5914 72.7222 66.1113 71.2422 66.1113 69.4167C66.1113 67.5912 67.5914 66.1111 69.4169 66.1111C71.2424 66.1111 72.7224 67.5912 72.7224 69.4167" fill="white"/>
<path fill-rule="evenodd" clip-rule="evenodd" d="M105.778 69.4167C105.778 71.2422 104.298 72.7222 102.472 72.7222C100.647 72.7222 99.1665 71.2422 99.1665 69.4167C99.1665 67.5912 100.647 66.1111 102.472 66.1111C104.298 66.1111 105.778 67.5912 105.778 69.4167" fill="white"/>
<path fill-rule="evenodd" clip-rule="evenodd" d="M138.833 69.4167C138.833 71.2422 137.353 72.7222 135.528 72.7222C133.702 72.7222 132.222 71.2422 132.222 69.4167C132.222 67.5912 133.702 66.1111 135.528 66.1111C137.353 66.1111 138.833 67.5912 138.833 69.4167" fill="white"/>
<path fill-rule="evenodd" clip-rule="evenodd" d="M171.889 69.4167C171.889 71.2422 170.409 72.7222 168.583 72.7222C166.758 72.7222 165.278 71.2422 165.278 69.4167C165.278 67.5912 166.758 66.1111 168.583 66.1111C170.409 66.1111 171.889 67.5912 171.889 69.4167" fill="white"/>
<path fill-rule="evenodd" clip-rule="evenodd" d="M204.945 69.4167C204.945 71.2422 203.465 72.7222 201.639 72.7222C199.814 72.7222 198.333 71.2422 198.333 69.4167C198.333 67.5912 199.814 66.1111 201.639 66.1111C203.465 66.1111 204.945 67.5912 204.945 69.4167" fill="white"/>
<path fill-rule="evenodd" clip-rule="evenodd" d="M238 69.4167C238 71.2422 236.52 72.7222 234.694 72.7222C232.869 72.7222 231.389 71.2422 231.389 69.4167C231.389 67.5912 232.869 66.1111 234.694 66.1111C236.52 66.1111 238 67.5912 238 69.4167" fill="white"/>
<path fill-rule="evenodd" clip-rule="evenodd" d="M6.61111 102.472C6.61111 104.298 5.13105 105.778 3.30556 105.778C1.48006 105.778 0 104.298 0 102.472C0 100.647 1.48006 99.1667 3.30556 99.1667C5.13105 99.1667 6.61111 100.647 6.61111 102.472" fill="white"/>
<path fill-rule="evenodd" clip-rule="evenodd" d="M39.6668 102.472C39.6668 104.298 38.1867 105.778 36.3612 105.778C34.5357 105.778 33.0557 104.298 33.0557 102.472C33.0557 100.647 34.5357 99.1667 36.3612 99.1667C38.1867 99.1667 39.6668 100.647 39.6668 102.472" fill="white"/>
<path fill-rule="evenodd" clip-rule="evenodd" d="M72.7224 102.472C72.7224 104.298 71.2424 105.778 69.4169 105.778C67.5914 105.778 66.1113 104.298 66.1113 102.472C66.1113 100.647 67.5914 99.1667 69.4169 99.1667C71.2424 99.1667 72.7224 100.647 72.7224 102.472" fill="white"/>
<path fill-rule="evenodd" clip-rule="evenodd" d="M105.778 102.472C105.778 104.298 104.298 105.778 102.472 105.778C100.647 105.778 99.1665 104.298 99.1665 102.472C99.1665 100.647 100.647 99.1667 102.472 99.1667C104.298 99.1667 105.778 100.647 105.778 102.472" fill="white"/>
<path fill-rule="evenodd" clip-rule="evenodd" d="M138.833 102.472C138.833 104.298 137.353 105.778 135.528 105.778C133.702 105.778 132.222 104.298 132.222 102.472C132.222 100.647 133.702 99.1667 135.528 99.1667C137.353 99.1667 138.833 100.647 138.833 102.472" fill="white"/>
<path fill-rule="evenodd" clip-rule="evenodd" d="M171.889 102.472C171.889 104.298 170.409 105.778 168.583 105.778C166.758 105.778 165.278 104.298 165.278 102.472C165.278 100.647 166.758 99.1667 168.583 99.1667C170.409 99.1667 171.889 100.647 171.889 102.472" fill="white"/>
<path fill-rule="evenodd" clip-rule="evenodd" d="M204.945 102.472C204.945 104.298 203.465 105.778 201.639 105.778C199.814 105.778 198.333 104.298 198.333 102.472C198.333 100.647 199.814 99.1667 201.639 99.1667C203.465 99.1667 204.945 100.647 204.945 102.472" fill="white"/>
<path fill-rule="evenodd" clip-rule="evenodd" d="M238 102.472C238 104.298 236.52 105.778 234.694 105.778C232.869 105.778 231.389 104.298 231.389 102.472C231.389 100.647 232.869 99.1667 234.694 99.1667C236.52 99.1667 238 100.647 238 102.472" fill="white"/>
<path fill-rule="evenodd" clip-rule="evenodd" d="M6.61111 135.528C6.61111 137.353 5.13105 138.833 3.30556 138.833C1.48006 138.833 0 137.353 0 135.528C0 133.702 1.48006 132.222 3.30556 132.222C5.13105 132.222 6.61111 133.702 6.61111 135.528" fill="white"/>
<path fill-rule="evenodd" clip-rule="evenodd" d="M39.6668 135.528C39.6668 137.353 38.1867 138.833 36.3612 138.833C34.5357 138.833 33.0557 137.353 33.0557 135.528C33.0557 133.702 34.5357 132.222 36.3612 132.222C38.1867 132.222 39.6668 133.702 39.6668 135.528" fill="white"/>
<path fill-rule="evenodd" clip-rule="evenodd" d="M72.7224 135.528C72.7224 137.353 71.2424 138.833 69.4169 138.833C67.5914 138.833 66.1113 137.353 66.1113 135.528C66.1113 133.702 67.5914 132.222 69.4169 132.222C71.2424 132.222 72.7224 133.702 72.7224 135.528" fill="white"/>
<path fill-rule="evenodd" clip-rule="evenodd" d="M105.778 135.528C105.778 137.353 104.298 138.833 102.472 138.833C100.647 138.833 99.1665 137.353 99.1665 135.528C99.1665 133.702 100.647 132.222 102.472 132.222C104.298 132.222 105.778 133.702 105.778 135.528" fill="white"/>
<path fill-rule="evenodd" clip-rule="evenodd" d="M138.833 135.528C138.833 137.353 137.353 138.833 135.528 138.833C133.702 138.833 132.222 137.353 132.222 135.528C132.222 133.702 133.702 132.222 135.528 132.222C137.353 132.222 138.833 133.702 138.833 135.528" fill="white"/>
<path fill-rule="evenodd" clip-rule="evenodd" d="M171.889 135.528C171.889 137.353 170.409 138.833 168.583 138.833C166.758 138.833 165.278 137.353 165.278 135.528C165.278 133.702 166.758 132.222 168.583 132.222C170.409 132.222 171.889 133.702 171.889 135.528" fill="white"/>
<path fill-rule="evenodd" clip-rule="evenodd" d="M204.945 135.528C204.945 137.353 203.465 138.833 201.639 138.833C199.814 138.833 198.333 137.353 198.333 135.528C198.333 133.702 199.814 132.222 201.639 132.222C203.465 132.222 204.945 133.702 204.945 135.528" fill="white"/>
<path fill-rule="evenodd" clip-rule="evenodd" d="M238 135.528C238 137.353 236.52 138.833 234.694 138.833C232.869 138.833 231.389 137.353 231.389 135.528C231.389 133.702 232.869 132.222 234.694 132.222C236.52 132.222 238 133.702 238 135.528" fill="white"/>
<path fill-rule="evenodd" clip-rule="evenodd" d="M6.61111 168.583C6.61111 170.409 5.13105 171.889 3.30556 171.889C1.48006 171.889 0 170.409 0 168.583C0 166.758 1.48006 165.278 3.30556 165.278C5.13105 165.278 6.61111 166.758 6.61111 168.583" fill="white"/>
<path fill-rule="evenodd" clip-rule="evenodd" d="M39.6668 168.583C39.6668 170.409 38.1867 171.889 36.3612 171.889C34.5357 171.889 33.0557 170.409 33.0557 168.583C33.0557 166.758 34.5357 165.278 36.3612 165.278C38.1867 165.278 39.6668 166.758 39.6668 168.583" fill="white"/>
<path fill-rule="evenodd" clip-rule="evenodd" d="M72.7224 168.583C72.7224 170.409 71.2424 171.889 69.4169 171.889C67.5914 171.889 66.1113 170.409 66.1113 168.583C66.1113 166.758 67.5914 165.278 69.4169 165.278C71.2424 165.278 72.7224 166.758 72.7224 168.583" fill="white"/>
<path fill-rule="evenodd" clip-rule="evenodd" d="M105.778 168.583C105.778 170.409 104.298 171.889 102.472 171.889C100.647 171.889 99.1665 170.409 99.1665 168.583C99.1665 166.758 100.647 165.278 102.472 165.278C104.298 165.278 105.778 166.758 105.778 168.583" fill="white"/>
<path fill-rule="evenodd" clip-rule="evenodd" d="M138.833 168.583C138.833 170.409 137.353 171.889 135.528 171.889C133.702 171.889 132.222 170.409 132.222 168.583C132.222 166.758 133.702 165.278 135.528 165.278C137.353 165.278 138.833 166.758 138.833 168.583" fill="white"/>
<path fill-rule="evenodd" clip-rule="evenodd" d="M171.889 168.583C171.889 170.409 170.409 171.889 168.583 171.889C166.758 171.889 165.278 170.409 165.278 168.583C165.278 166.758 166.758 165.278 168.583 165.278C170.409 165.278 171.889 166.758 171.889 168.583" fill="white"/>
<path fill-rule="evenodd" clip-rule="evenodd" d="M204.945 168.583C204.945 170.409 203.465 171.889 201.639 171.889C199.814 171.889 198.333 170.409 198.333 168.583C198.333 166.758 199.814 165.278 201.639 165.278C203.465 165.278 204.945 166.758 204.945 168.583" fill="white"/>
<path fill-rule="evenodd" clip-rule="evenodd" d="M238 168.583C238 170.409 236.52 171.889 234.694 171.889C232.869 171.889 231.389 170.409 231.389 168.583C231.389 166.758 232.869 165.278 234.694 165.278C236.52 165.278 238 166.758 238 168.583" fill="white"/>
<path fill-rule="evenodd" clip-rule="evenodd" d="M6.61111 201.639C6.61111 203.464 5.13105 204.944 3.30556 204.944C1.48006 204.944 0 203.464 0 201.639C0 199.813 1.48006 198.333 3.30556 198.333C5.13105 198.333 6.61111 199.813 6.61111 201.639" fill="white"/>
<path fill-rule="evenodd" clip-rule="evenodd" d="M39.6668 201.639C39.6668 203.464 38.1867 204.944 36.3612 204.944C34.5357 204.944 33.0557 203.464 33.0557 201.639C33.0557 199.813 34.5357 198.333 36.3612 198.333C38.1867 198.333 39.6668 199.813 39.6668 201.639" fill="white"/>
<path fill-rule="evenodd" clip-rule="evenodd" d="M72.7224 201.639C72.7224 203.464 71.2424 204.944 69.4169 204.944C67.5914 204.944 66.1113 203.464 66.1113 201.639C66.1113 199.813 67.5914 198.333 69.4169 198.333C71.2424 198.333 72.7224 199.813 72.7224 201.639" fill="white"/>
<path fill-rule="evenodd" clip-rule="evenodd" d="M105.778 201.639C105.778 203.464 104.298 204.944 102.472 204.944C100.647 204.944 99.1665 203.464 99.1665 201.639C99.1665 199.813 100.647 198.333 102.472 198.333C104.298 198.333 105.778 199.813 105.778 201.639" fill="white"/>
<path fill-rule="evenodd" clip-rule="evenodd" d="M138.833 201.639C138.833 203.464 137.353 204.944 135.528 204.944C133.702 204.944 132.222 203.464 132.222 201.639C132.222 199.813 133.702 198.333 135.528 198.333C137.353 198.333 138.833 199.813 138.833 201.639" fill="white"/>
<path fill-rule="evenodd" clip-rule="evenodd" d="M171.889 201.639C171.889 203.464 170.409 204.944 168.583 204.944C166.758 204.944 165.278 203.464 165.278 201.639C165.278 199.813 166.758 198.333 168.583 198.333C170.409 198.333 171.889 199.813 171.889 201.639" fill="white"/>
<path fill-rule="evenodd" clip-rule="evenodd" d="M204.945 201.639C204.945 203.464 203.465 204.944 201.639 204.944C199.814 204.944 198.333 203.464 198.333 201.639C198.333 199.813 199.814 198.333 201.639 198.333C203.465 198.333 204.945 199.813 204.945 201.639" fill="white"/>
<path fill-rule="evenodd" clip-rule="evenodd" d="M238 201.639C238 203.464 236.52 204.944 234.694 204.944C232.869 204.944 231.389 203.464 231.389 201.639C231.389 199.813 232.869 198.333 234.694 198.333C236.52 198.333 238 199.813 238 201.639" fill="white"/>
<path fill-rule="evenodd" clip-rule="evenodd" d="M6.61111 234.694C6.61111 236.52 5.13105 238 3.30556 238C1.48006 238 0 236.52 0 234.694C0 232.869 1.48006 231.389 3.30556 231.389C5.13105 231.389 6.61111 232.869 6.61111 234.694" fill="white"/>
<path fill-rule="evenodd" clip-rule="evenodd" d="M39.6668 234.694C39.6668 236.52 38.1867 238 36.3612 238C34.5357 238 33.0557 236.52 33.0557 234.694C33.0557 232.869 34.5357 231.389 36.3612 231.389C38.1867 231.389 39.6668 232.869 39.6668 234.694" fill="white"/>
<path fill-rule="evenodd" clip-rule="evenodd" d="M72.7224 234.694C72.7224 236.52 71.2424 238 69.4169 238C67.5914 238 66.1113 236.52 66.1113 234.694C66.1113 232.869 67.5914 231.389 69.4169 231.389C71.2424 231.389 72.7224 232.869 72.7224 234.694" fill="white"/>
<path fill-rule="evenodd" clip-rule="evenodd" d="M105.778 234.694C105.778 236.52 104.298 238 102.472 238C100.647 238 99.1665 236.52 99.1665 234.694C99.1665 232.869 100.647 231.389 102.472 231.389C104.298 231.389 105.778 232.869 105.778 234.694" fill="white"/>
<path fill-rule="evenodd" clip-rule="evenodd" d="M138.833 234.694C138.833 236.52 137.353 238 135.528 238C133.702 238 132.222 236.52 132.222 234.694C132.222 232.869 133.702 231.389 135.528 231.389C137.353 231.389 138.833 232.869 138.833 234.694" fill="white"/>
<path fill-rule="evenodd" clip-rule="evenodd" d="M171.889 234.694C171.889 236.52 170.409 238 168.583 238C166.758 238 165.278 236.52 165.278 234.694C165.278 232.869 166.758 231.389 168.583 231.389C170.409 231.389 171.889 232.869 171.889 234.694" fill="white"/>
<path fill-rule="evenodd" clip-rule="evenodd" d="M204.945 234.694C204.945 236.52 203.465 238 201.639 238C199.814 238 198.333 236.52 198.333 234.694C198.333 232.869 199.814 231.389 201.639 231.389C203.465 231.389 204.945 232.869 204.945 234.694" fill="white"/>
<path fill-rule="evenodd" clip-rule="evenodd" d="M238 234.694C238 236.52 236.52 238 234.694 238C232.869 238 231.389 236.52 231.389 234.694C231.389 232.869 232.869 231.389 234.694 231.389C236.52 231.389 238 232.869 238 234.694" fill="white"/>
</svg>
