<svg width="504" height="360" viewBox="0 0 504 360" fill="none" xmlns="http://www.w3.org/2000/svg">
<g clip-path="url(#clip0_0_210)" filter="url(#filter0_d_0_210)">
<g filter="url(#filter1_d_0_210)">
<rect x="10" y="8" width="483.933" height="340" fill="#C8C8C8"/>
</g>
<mask id="mask0_0_210" style="mask-type:luminance" maskUnits="userSpaceOnUse" x="10" y="8" width="484" height="340">
<rect x="10" y="8" width="483.933" height="340" fill="white"/>
</mask>
<g mask="url(#mask0_0_210)">
</g>
<rect x="10" y="233" width="484" height="115" fill="white"/>
<mask id="mask1_0_210" style="mask-type:luminance" maskUnits="userSpaceOnUse" x="10" y="233" width="484" height="115">
<rect x="10" y="233" width="484" height="115" fill="white"/>
</mask>
<g mask="url(#mask1_0_210)">
<rect x="10" y="233" width="484" height="115" fill="#3B43F2"/>
</g>
<g clip-path="url(#clip1_0_210)">
<path d="M59.968 313V295.96H61.816V311.392H69.784L69.616 313H59.968ZM76.3986 300.856C78.0466 300.856 79.3426 301.392 80.2866 302.464C81.2466 303.52 81.7266 304.96 81.7266 306.784C81.7266 308 81.4866 309.096 81.0066 310.072C80.5426 311.032 79.8866 311.792 79.0386 312.352C78.1906 312.912 77.1986 313.192 76.0626 313.192C74.3826 313.192 73.0626 312.664 72.1026 311.608C71.1426 310.536 70.6626 309.08 70.6626 307.24C70.6626 306.024 70.8946 304.936 71.3586 303.976C71.8386 303.016 72.5106 302.256 73.3746 301.696C74.2386 301.136 75.2466 300.856 76.3986 300.856ZM76.0626 311.584C77.2146 311.584 78.1426 311.144 78.8466 310.264C79.5506 309.384 79.9026 308.224 79.9026 306.784C79.9026 305.392 79.5906 304.32 78.9666 303.568C78.3586 302.816 77.5106 302.44 76.4226 302.44C75.6226 302.44 74.9266 302.648 74.3346 303.064C73.7586 303.464 73.3026 304.024 72.9666 304.744C72.6466 305.464 72.4866 306.296 72.4866 307.24C72.4866 308.648 72.7986 309.728 73.4226 310.48C74.0626 311.216 74.9426 311.584 76.0626 311.584ZM91.5758 302.728C91.4158 302.68 91.2558 302.648 91.0958 302.632C90.9358 302.616 90.7598 302.608 90.5678 302.608C89.1758 302.608 88.1598 303.432 87.5198 305.08C86.8798 306.712 86.5598 309.352 86.5598 313H84.8318V305.344L84.8078 301.072H86.5598L86.4398 305.32C86.8238 303.704 87.3998 302.56 88.1678 301.888C88.9358 301.2 89.7598 300.856 90.6398 300.856C90.8958 300.856 91.1198 300.872 91.3118 300.904C91.5198 300.92 91.6958 300.96 91.8398 301.024L91.5758 302.728ZM98.4573 313.192C96.6173 313.192 95.1693 312.664 94.1133 311.608C93.0733 310.552 92.5533 309.08 92.5533 307.192C92.5533 305.96 92.8013 304.864 93.2973 303.904C93.7933 302.944 94.4653 302.2 95.3133 301.672C96.1773 301.128 97.1533 300.856 98.2413 300.856C99.8733 300.856 101.129 301.424 102.009 302.56C102.905 303.696 103.225 305.392 102.969 307.648H94.3533C94.4013 308.928 94.7853 309.904 95.5053 310.576C96.2413 311.248 97.2653 311.584 98.5773 311.584C99.2173 311.584 99.8333 311.448 100.425 311.176C101.017 310.888 101.521 310.448 101.937 309.856L103.041 310.864C101.969 312.416 100.441 313.192 98.4573 313.192ZM98.2653 302.272C97.5293 302.272 96.8813 302.448 96.3213 302.8C95.7773 303.152 95.3373 303.632 95.0013 304.24C94.6653 304.832 94.4573 305.496 94.3773 306.232H101.433C101.497 304.84 101.225 303.832 100.617 303.208C100.009 302.584 99.2253 302.272 98.2653 302.272ZM105.925 313V301.072H107.701L107.557 305.176C107.989 303.704 108.613 302.616 109.429 301.912C110.261 301.208 111.181 300.856 112.189 300.856C113.229 300.856 114.069 301.168 114.709 301.792C115.349 302.416 115.741 303.36 115.885 304.624C116.333 303.36 116.973 302.416 117.805 301.792C118.653 301.168 119.565 300.856 120.541 300.856C121.757 300.856 122.685 301.28 123.325 302.128C123.981 302.976 124.301 304.2 124.285 305.8L124.237 313H122.485L122.533 306.016C122.565 303.664 121.757 302.488 120.109 302.488C119.565 302.488 119.045 302.656 118.549 302.992C118.053 303.328 117.605 303.896 117.205 304.696C116.821 305.48 116.517 306.552 116.293 307.912C116.069 309.272 115.957 310.968 115.957 313H114.229V306.016C114.229 304.832 114.037 303.952 113.653 303.376C113.285 302.784 112.685 302.488 111.853 302.488C111.293 302.488 110.765 302.656 110.269 302.992C109.773 303.328 109.325 303.896 108.925 304.696C108.541 305.48 108.229 306.552 107.989 307.912C107.765 309.272 107.653 310.968 107.653 313H105.925ZM133.374 313V295.96H135.222V313H133.374ZM138.995 317.8V301.072H140.771L140.699 303.856C141.131 302.928 141.723 302.2 142.475 301.672C143.227 301.128 144.091 300.856 145.067 300.856C146.075 300.856 146.923 301.096 147.611 301.576C148.315 302.04 148.843 302.696 149.195 303.544C149.563 304.376 149.747 305.336 149.747 306.424C149.747 307.752 149.507 308.928 149.027 309.952C148.547 310.96 147.875 311.752 147.011 312.328C146.147 312.904 145.147 313.192 144.011 313.192C143.275 313.192 142.619 313.032 142.043 312.712C141.467 312.392 141.027 311.968 140.723 311.44L140.747 313V317.8H138.995ZM143.963 311.584C145.163 311.584 146.123 311.128 146.843 310.216C147.563 309.288 147.923 308.064 147.923 306.544C147.923 305.264 147.643 304.264 147.083 303.544C146.539 302.808 145.787 302.44 144.827 302.44C144.043 302.44 143.339 302.672 142.715 303.136C142.107 303.6 141.619 304.24 141.251 305.056C140.899 305.872 140.723 306.8 140.723 307.84C140.723 309.008 141.011 309.928 141.587 310.6C142.179 311.256 142.971 311.584 143.963 311.584ZM156.663 313.192C155.175 313.192 154.023 312.888 153.207 312.28C152.391 311.656 151.919 310.776 151.791 309.64L153.327 309.28C153.439 310.128 153.759 310.752 154.287 311.152C154.831 311.552 155.623 311.752 156.663 311.752C157.543 311.752 158.207 311.576 158.655 311.224C159.119 310.856 159.351 310.384 159.351 309.808C159.351 309.264 159.119 308.864 158.655 308.608C158.191 308.336 157.463 308.104 156.471 307.912C155.639 307.752 154.927 307.552 154.335 307.312C153.743 307.056 153.287 306.704 152.967 306.256C152.647 305.808 152.487 305.208 152.487 304.456C152.487 303.784 152.671 303.176 153.039 302.632C153.407 302.088 153.911 301.664 154.551 301.36C155.207 301.04 155.943 300.88 156.759 300.88C157.879 300.88 158.791 301.152 159.495 301.696C160.215 302.224 160.655 302.96 160.815 303.904L159.327 304.288C159.087 302.976 158.223 302.32 156.735 302.32C155.967 302.32 155.351 302.512 154.887 302.896C154.439 303.264 154.215 303.768 154.215 304.408C154.215 304.936 154.415 305.36 154.815 305.68C155.215 305.984 155.935 306.248 156.975 306.472C157.823 306.648 158.551 306.856 159.159 307.096C159.767 307.32 160.231 307.632 160.551 308.032C160.887 308.432 161.063 308.984 161.079 309.688C161.079 310.36 160.895 310.96 160.527 311.488C160.159 312.016 159.639 312.432 158.967 312.736C158.311 313.04 157.543 313.192 156.663 313.192ZM167.251 313.192C166.051 313.192 165.131 312.776 164.491 311.944C163.851 311.112 163.531 309.96 163.531 308.488L163.603 301.072H165.355L165.283 308.272C165.267 309.312 165.451 310.12 165.835 310.696C166.219 311.272 166.827 311.56 167.659 311.56C168.475 311.56 169.195 311.232 169.819 310.576C170.443 309.92 170.931 308.832 171.283 307.312C171.651 305.776 171.843 303.696 171.859 301.072H173.539V313H171.763L171.907 309.088C171.459 310.496 170.827 311.536 170.011 312.208C169.195 312.864 168.275 313.192 167.251 313.192ZM177.128 313V301.072H178.904L178.76 305.176C179.192 303.704 179.816 302.616 180.632 301.912C181.464 301.208 182.384 300.856 183.392 300.856C184.432 300.856 185.272 301.168 185.912 301.792C186.552 302.416 186.944 303.36 187.088 304.624C187.536 303.36 188.176 302.416 189.008 301.792C189.856 301.168 190.768 300.856 191.744 300.856C192.96 300.856 193.888 301.28 194.528 302.128C195.184 302.976 195.504 304.2 195.488 305.8L195.44 313H193.688L193.736 306.016C193.768 303.664 192.96 302.488 191.312 302.488C190.768 302.488 190.248 302.656 189.752 302.992C189.256 303.328 188.808 303.896 188.408 304.696C188.024 305.48 187.72 306.552 187.496 307.912C187.272 309.272 187.16 310.968 187.16 313H185.432V306.016C185.432 304.832 185.24 303.952 184.856 303.376C184.488 302.784 183.888 302.488 183.056 302.488C182.496 302.488 181.968 302.656 181.472 302.992C180.976 303.328 180.528 303.896 180.128 304.696C179.744 305.48 179.432 306.552 179.192 307.912C178.968 309.272 178.856 310.968 178.856 313H177.128ZM222.865 295.96H224.641L219.697 313H217.537L213.985 298.552L209.785 313H207.625L203.401 295.96H205.273L208.801 310.816L213.121 295.96H215.113L218.713 310.768L222.865 295.96ZM231.137 313.192C229.297 313.192 227.849 312.664 226.793 311.608C225.753 310.552 225.233 309.08 225.233 307.192C225.233 305.96 225.481 304.864 225.977 303.904C226.473 302.944 227.145 302.2 227.993 301.672C228.857 301.128 229.833 300.856 230.921 300.856C232.553 300.856 233.809 301.424 234.689 302.56C235.585 303.696 235.905 305.392 235.649 307.648H227.033C227.081 308.928 227.465 309.904 228.185 310.576C228.921 311.248 229.945 311.584 231.257 311.584C231.897 311.584 232.513 311.448 233.105 311.176C233.697 310.888 234.201 310.448 234.617 309.856L235.721 310.864C234.649 312.416 233.121 313.192 231.137 313.192ZM230.945 302.272C230.209 302.272 229.561 302.448 229.001 302.8C228.457 303.152 228.017 303.632 227.681 304.24C227.345 304.832 227.137 305.496 227.057 306.232H234.113C234.177 304.84 233.905 303.832 233.297 303.208C232.689 302.584 231.905 302.272 230.945 302.272ZM238.605 313V295.24H240.357V301.048L240.285 303.928C240.717 302.984 241.309 302.24 242.061 301.696C242.813 301.136 243.685 300.856 244.677 300.856C245.685 300.856 246.533 301.096 247.221 301.576C247.925 302.04 248.453 302.696 248.805 303.544C249.173 304.376 249.357 305.336 249.357 306.424C249.357 307.752 249.117 308.928 248.637 309.952C248.157 310.96 247.485 311.752 246.621 312.328C245.757 312.904 244.757 313.192 243.621 313.192C242.821 313.192 242.117 313.008 241.509 312.64C240.901 312.256 240.461 311.768 240.189 311.176L239.925 313H238.605ZM243.573 311.584C244.773 311.584 245.733 311.128 246.453 310.216C247.173 309.288 247.533 308.064 247.533 306.544C247.533 305.264 247.253 304.264 246.693 303.544C246.149 302.808 245.397 302.44 244.437 302.44C243.653 302.44 242.949 302.672 242.325 303.136C241.717 303.6 241.229 304.24 240.861 305.056C240.509 305.872 240.333 306.8 240.333 307.84C240.333 309.008 240.621 309.928 241.197 310.6C241.789 311.256 242.581 311.584 243.573 311.584ZM256.273 313.192C254.785 313.192 253.633 312.888 252.817 312.28C252.001 311.656 251.529 310.776 251.401 309.64L252.937 309.28C253.049 310.128 253.369 310.752 253.897 311.152C254.441 311.552 255.233 311.752 256.273 311.752C257.153 311.752 257.817 311.576 258.265 311.224C258.729 310.856 258.961 310.384 258.961 309.808C258.961 309.264 258.729 308.864 258.265 308.608C257.801 308.336 257.073 308.104 256.081 307.912C255.249 307.752 254.537 307.552 253.945 307.312C253.353 307.056 252.897 306.704 252.577 306.256C252.257 305.808 252.097 305.208 252.097 304.456C252.097 303.784 252.281 303.176 252.649 302.632C253.017 302.088 253.521 301.664 254.161 301.36C254.817 301.04 255.553 300.88 256.369 300.88C257.489 300.88 258.401 301.152 259.105 301.696C259.825 302.224 260.265 302.96 260.425 303.904L258.937 304.288C258.697 302.976 257.833 302.32 256.345 302.32C255.577 302.32 254.961 302.512 254.497 302.896C254.049 303.264 253.825 303.768 253.825 304.408C253.825 304.936 254.025 305.36 254.425 305.68C254.825 305.984 255.545 306.248 256.585 306.472C257.433 306.648 258.161 306.856 258.769 307.096C259.377 307.32 259.841 307.632 260.161 308.032C260.497 308.432 260.673 308.984 260.689 309.688C260.689 310.36 260.505 310.96 260.137 311.488C259.769 312.016 259.249 312.432 258.577 312.736C257.921 313.04 257.153 313.192 256.273 313.192ZM265.012 301.072V313H263.284V301.072H265.012ZM264.196 298.36C263.812 298.36 263.516 298.24 263.308 298C263.1 297.76 262.996 297.48 262.996 297.16C262.996 296.84 263.1 296.56 263.308 296.32C263.532 296.08 263.828 295.96 264.196 295.96C264.564 295.96 264.852 296.08 265.06 296.32C265.284 296.56 265.396 296.84 265.396 297.16C265.396 297.48 265.284 297.76 265.06 298C264.852 298.24 264.564 298.36 264.196 298.36ZM273.141 313.192C271.781 313.192 270.757 312.832 270.069 312.112C269.381 311.376 269.045 310.4 269.061 309.184L269.133 302.56H267.021V301.072H269.157L269.181 298.576H270.933L270.909 301.072H275.061V302.56H270.885L270.813 309.064C270.813 309.832 271.005 310.448 271.389 310.912C271.789 311.376 272.405 311.608 273.237 311.608C273.605 311.608 273.949 311.568 274.269 311.488C274.589 311.392 274.925 311.208 275.277 310.936L275.853 312.328C275.501 312.632 275.085 312.856 274.605 313C274.125 313.128 273.637 313.192 273.141 313.192ZM282.582 313.192C280.742 313.192 279.294 312.664 278.238 311.608C277.198 310.552 276.678 309.08 276.678 307.192C276.678 305.96 276.926 304.864 277.422 303.904C277.918 302.944 278.59 302.2 279.438 301.672C280.302 301.128 281.278 300.856 282.366 300.856C283.998 300.856 285.254 301.424 286.134 302.56C287.03 303.696 287.35 305.392 287.094 307.648H278.478C278.526 308.928 278.91 309.904 279.63 310.576C280.366 311.248 281.39 311.584 282.702 311.584C283.342 311.584 283.958 311.448 284.55 311.176C285.142 310.888 285.646 310.448 286.062 309.856L287.166 310.864C286.094 312.416 284.566 313.192 282.582 313.192ZM282.39 302.272C281.654 302.272 281.006 302.448 280.446 302.8C279.902 303.152 279.462 303.632 279.126 304.24C278.79 304.832 278.582 305.496 278.502 306.232H285.558C285.622 304.84 285.35 303.832 284.742 303.208C284.134 302.584 283.35 302.272 282.39 302.272ZM297.503 313H295.679V295.96H301.199C303.167 295.96 304.695 296.384 305.783 297.232C306.887 298.08 307.439 299.312 307.439 300.928C307.439 302.544 306.879 303.816 305.759 304.744C304.639 305.656 302.903 306.112 300.551 306.112H297.503V313ZM301.007 297.496H297.503V304.552H300.647C302.423 304.552 303.695 304.248 304.463 303.64C305.231 303.032 305.615 302.128 305.615 300.928C305.615 299.744 305.239 298.88 304.487 298.336C303.735 297.776 302.575 297.496 301.007 297.496ZM316.623 302.728C316.463 302.68 316.303 302.648 316.143 302.632C315.983 302.616 315.807 302.608 315.615 302.608C314.223 302.608 313.207 303.432 312.567 305.08C311.927 306.712 311.607 309.352 311.607 313H309.879V305.344L309.855 301.072H311.607L311.487 305.32C311.871 303.704 312.447 302.56 313.215 301.888C313.983 301.2 314.807 300.856 315.687 300.856C315.943 300.856 316.167 300.872 316.359 300.904C316.567 300.92 316.743 300.96 316.887 301.024L316.623 302.728ZM323.336 300.856C324.984 300.856 326.28 301.392 327.224 302.464C328.184 303.52 328.664 304.96 328.664 306.784C328.664 308 328.424 309.096 327.944 310.072C327.48 311.032 326.824 311.792 325.976 312.352C325.128 312.912 324.136 313.192 323 313.192C321.32 313.192 320 312.664 319.04 311.608C318.08 310.536 317.6 309.08 317.6 307.24C317.6 306.024 317.832 304.936 318.296 303.976C318.776 303.016 319.448 302.256 320.312 301.696C321.176 301.136 322.184 300.856 323.336 300.856ZM323 311.584C324.152 311.584 325.08 311.144 325.784 310.264C326.488 309.384 326.84 308.224 326.84 306.784C326.84 305.392 326.528 304.32 325.904 303.568C325.296 302.816 324.448 302.44 323.36 302.44C322.56 302.44 321.864 302.648 321.272 303.064C320.696 303.464 320.24 304.024 319.904 304.744C319.584 305.464 319.424 306.296 319.424 307.24C319.424 308.648 319.736 309.728 320.36 310.48C321 311.216 321.88 311.584 323 311.584ZM329.321 318.064C328.905 318.064 328.489 318.024 328.073 317.944C327.641 317.864 327.281 317.744 326.993 317.584L327.401 316.096C327.977 316.352 328.601 316.48 329.273 316.48C330.281 316.48 331.001 316.168 331.433 315.544C331.865 314.936 332.081 314.104 332.081 313.048V301.072H333.833V313.144C333.833 314.696 333.425 315.904 332.609 316.768C331.793 317.632 330.697 318.064 329.321 318.064ZM332.993 298.36C332.609 298.36 332.313 298.24 332.105 298C331.897 297.76 331.793 297.48 331.793 297.16C331.793 296.84 331.897 296.56 332.105 296.32C332.329 296.08 332.625 295.96 332.993 295.96C333.361 295.96 333.649 296.08 333.857 296.32C334.081 296.56 334.193 296.84 334.193 297.16C334.193 297.48 334.081 297.76 333.857 298C333.649 298.24 333.361 298.36 332.993 298.36ZM342.817 313.192C340.977 313.192 339.529 312.664 338.473 311.608C337.433 310.552 336.913 309.08 336.913 307.192C336.913 305.96 337.161 304.864 337.657 303.904C338.153 302.944 338.825 302.2 339.673 301.672C340.537 301.128 341.513 300.856 342.601 300.856C344.233 300.856 345.489 301.424 346.369 302.56C347.265 303.696 347.585 305.392 347.329 307.648H338.713C338.761 308.928 339.145 309.904 339.865 310.576C340.601 311.248 341.625 311.584 342.937 311.584C343.577 311.584 344.193 311.448 344.785 311.176C345.377 310.888 345.881 310.448 346.297 309.856L347.401 310.864C346.329 312.416 344.801 313.192 342.817 313.192ZM342.625 302.272C341.889 302.272 341.241 302.448 340.681 302.8C340.137 303.152 339.697 303.632 339.361 304.24C339.025 304.832 338.817 305.496 338.737 306.232H345.793C345.857 304.84 345.585 303.832 344.977 303.208C344.369 302.584 343.585 302.272 342.625 302.272ZM355.348 313.192C353.604 313.192 352.236 312.672 351.244 311.632C350.252 310.576 349.756 309.112 349.756 307.24C349.756 305.976 350.004 304.864 350.5 303.904C350.996 302.944 351.684 302.2 352.564 301.672C353.444 301.128 354.468 300.856 355.636 300.856C357.556 300.856 358.964 301.624 359.86 303.16L358.516 304.168C357.876 303.032 356.9 302.464 355.588 302.464C354.388 302.464 353.42 302.904 352.684 303.784C351.964 304.648 351.604 305.8 351.604 307.24C351.604 308.648 351.932 309.72 352.588 310.456C353.244 311.192 354.188 311.56 355.42 311.56C356.076 311.56 356.676 311.424 357.22 311.152C357.764 310.88 358.212 310.448 358.564 309.856L359.86 310.864C358.9 312.416 357.396 313.192 355.348 313.192ZM366.633 313.192C365.273 313.192 364.249 312.832 363.561 312.112C362.873 311.376 362.537 310.4 362.553 309.184L362.625 302.56H360.513V301.072H362.649L362.673 298.576H364.425L364.401 301.072H368.553V302.56H364.377L364.305 309.064C364.305 309.832 364.497 310.448 364.881 310.912C365.281 311.376 365.897 311.608 366.729 311.608C367.097 311.608 367.441 311.568 367.761 311.488C368.081 311.392 368.417 311.208 368.769 310.936L369.345 312.328C368.993 312.632 368.577 312.856 368.097 313C367.617 313.128 367.129 313.192 366.633 313.192Z" fill="white"/>
<path d="M59.274 273V272.35C60.1493 271.631 60.8687 270.981 61.432 270.4C61.9953 269.811 62.4373 269.273 62.758 268.788C63.0873 268.294 63.317 267.843 63.447 267.436C63.577 267.02 63.642 266.63 63.642 266.266C63.642 265.729 63.486 265.304 63.174 264.992C62.862 264.68 62.4417 264.524 61.913 264.524C60.821 264.524 60.08 265.122 59.69 266.318L58.936 265.954C59.1353 265.278 59.495 264.723 60.015 264.29C60.535 263.857 61.1807 263.64 61.952 263.64C62.4633 263.64 62.9183 263.74 63.317 263.939C63.7243 264.138 64.0407 264.429 64.266 264.81C64.5 265.191 64.6213 265.655 64.63 266.201C64.6387 266.79 64.5087 267.393 64.24 268.008C63.9713 268.623 63.538 269.278 62.94 269.971C62.3507 270.656 61.562 271.397 60.574 272.194H64.877V273H59.274ZM69.3179 273.104C68.8066 273.104 68.3213 273.043 67.8619 272.922C67.4026 272.801 67.0299 272.64 66.7439 272.441L67.0559 271.57C67.3419 271.761 67.6799 271.917 68.0699 272.038C68.4686 272.151 68.9106 272.207 69.3959 272.207C70.0459 272.207 70.5789 272.047 70.9949 271.726C71.4109 271.405 71.6189 270.916 71.6189 270.257C71.6189 269.65 71.3806 269.182 70.9039 268.853C70.4273 268.524 69.6603 268.346 68.6029 268.32L67.3289 268.281L67.6539 263.77H72.1649V264.576H68.5509L68.3429 267.462L68.7459 267.475C70.0979 267.518 71.0773 267.791 71.6839 268.294C72.2993 268.788 72.6069 269.438 72.6069 270.244C72.6069 271.145 72.3079 271.847 71.7099 272.35C71.1206 272.853 70.3233 273.104 69.3179 273.104ZM77.6139 273V263.77H79.9539C83.5245 263.77 85.3099 265.291 85.3099 268.333C85.3099 269.304 85.1105 270.14 84.7119 270.842C84.3132 271.535 83.7412 272.068 82.9959 272.441C82.2505 272.814 81.3579 273 80.3179 273H77.6139ZM78.6149 272.116H80.2659C81.5919 272.116 82.5929 271.8 83.2689 271.167C83.9535 270.534 84.2959 269.611 84.2959 268.398C84.2959 267.141 83.9492 266.205 83.2559 265.59C82.5712 264.966 81.5225 264.654 80.1099 264.654H78.6149V272.116ZM89.969 273.104C88.9724 273.104 88.188 272.818 87.616 272.246C87.0527 271.674 86.771 270.877 86.771 269.854C86.771 269.187 86.9054 268.593 87.174 268.073C87.4427 267.553 87.8067 267.15 88.266 266.864C88.734 266.569 89.2627 266.422 89.852 266.422C90.736 266.422 91.4164 266.73 91.893 267.345C92.3784 267.96 92.5517 268.879 92.413 270.101H87.746C87.772 270.794 87.98 271.323 88.37 271.687C88.7687 272.051 89.3234 272.233 90.034 272.233C90.3807 272.233 90.7144 272.159 91.035 272.012C91.3557 271.856 91.6287 271.618 91.854 271.297L92.452 271.843C91.8714 272.684 91.0437 273.104 89.969 273.104ZM89.865 267.189C89.4664 267.189 89.1154 267.284 88.812 267.475C88.5174 267.666 88.279 267.926 88.097 268.255C87.915 268.576 87.8024 268.935 87.759 269.334H91.581C91.6157 268.58 91.4684 268.034 91.139 267.696C90.8097 267.358 90.385 267.189 89.865 267.189ZM96.7571 273.104C95.8124 273.104 95.0714 272.822 94.5341 272.259C93.9967 271.687 93.7281 270.894 93.7281 269.88C93.7281 269.195 93.8624 268.593 94.1311 268.073C94.3997 267.553 94.7724 267.15 95.2491 266.864C95.7257 266.569 96.2804 266.422 96.9131 266.422C97.9531 266.422 98.7157 266.838 99.2011 267.67L98.4731 268.216C98.1264 267.601 97.5977 267.293 96.8871 267.293C96.2371 267.293 95.7127 267.531 95.3141 268.008C94.9241 268.476 94.7291 269.1 94.7291 269.88C94.7291 270.643 94.9067 271.223 95.2621 271.622C95.6174 272.021 96.1287 272.22 96.7961 272.22C97.1514 272.22 97.4764 272.146 97.7711 271.999C98.0657 271.852 98.3084 271.618 98.4991 271.297L99.2011 271.843C98.6811 272.684 97.8664 273.104 96.7571 273.104ZM103.007 273.104C102.01 273.104 101.226 272.818 100.654 272.246C100.091 271.674 99.8091 270.877 99.8091 269.854C99.8091 269.187 99.9435 268.593 100.212 268.073C100.481 267.553 100.845 267.15 101.304 266.864C101.772 266.569 102.301 266.422 102.89 266.422C103.774 266.422 104.454 266.73 104.931 267.345C105.416 267.96 105.59 268.879 105.451 270.101H100.784C100.81 270.794 101.018 271.323 101.408 271.687C101.807 272.051 102.361 272.233 103.072 272.233C103.419 272.233 103.752 272.159 104.073 272.012C104.394 271.856 104.667 271.618 104.892 271.297L105.49 271.843C104.909 272.684 104.082 273.104 103.007 273.104ZM102.903 267.189C102.504 267.189 102.153 267.284 101.85 267.475C101.555 267.666 101.317 267.926 101.135 268.255C100.953 268.576 100.84 268.935 100.797 269.334H104.619C104.654 268.58 104.506 268.034 104.177 267.696C103.848 267.358 103.423 267.189 102.903 267.189ZM107.052 273V266.539H108.014L107.936 268.762C108.17 267.965 108.508 267.375 108.95 266.994C109.401 266.613 109.899 266.422 110.445 266.422C111.008 266.422 111.463 266.591 111.81 266.929C112.157 267.267 112.369 267.778 112.447 268.463C112.69 267.778 113.036 267.267 113.487 266.929C113.946 266.591 114.44 266.422 114.969 266.422C115.628 266.422 116.13 266.652 116.477 267.111C116.832 267.57 117.006 268.233 116.997 269.1L116.971 273H116.022L116.048 269.217C116.065 267.943 115.628 267.306 114.735 267.306C114.44 267.306 114.159 267.397 113.89 267.579C113.621 267.761 113.379 268.069 113.162 268.502C112.954 268.927 112.789 269.507 112.668 270.244C112.547 270.981 112.486 271.899 112.486 273H111.55V269.217C111.55 268.576 111.446 268.099 111.238 267.787C111.039 267.466 110.714 267.306 110.263 267.306C109.96 267.306 109.674 267.397 109.405 267.579C109.136 267.761 108.894 268.069 108.677 268.502C108.469 268.927 108.3 269.507 108.17 270.244C108.049 270.981 107.988 271.899 107.988 273H107.052ZM118.871 273V263.38H119.82V266.526L119.781 268.086C120.015 267.575 120.336 267.172 120.743 266.877C121.151 266.574 121.623 266.422 122.16 266.422C122.706 266.422 123.166 266.552 123.538 266.812C123.92 267.063 124.206 267.419 124.396 267.878C124.596 268.329 124.695 268.849 124.695 269.438C124.695 270.157 124.565 270.794 124.305 271.349C124.045 271.895 123.681 272.324 123.213 272.636C122.745 272.948 122.204 273.104 121.588 273.104C121.155 273.104 120.774 273.004 120.444 272.805C120.115 272.597 119.877 272.333 119.729 272.012L119.586 273H118.871ZM121.562 272.233C122.212 272.233 122.732 271.986 123.122 271.492C123.512 270.989 123.707 270.326 123.707 269.503C123.707 268.81 123.556 268.268 123.252 267.878C122.958 267.479 122.55 267.28 122.03 267.28C121.606 267.28 121.224 267.406 120.886 267.657C120.557 267.908 120.293 268.255 120.093 268.697C119.903 269.139 119.807 269.642 119.807 270.205C119.807 270.838 119.963 271.336 120.275 271.7C120.596 272.055 121.025 272.233 121.562 272.233ZM129.274 273.104C128.277 273.104 127.493 272.818 126.921 272.246C126.357 271.674 126.076 270.877 126.076 269.854C126.076 269.187 126.21 268.593 126.479 268.073C126.747 267.553 127.111 267.15 127.571 266.864C128.039 266.569 128.567 266.422 129.157 266.422C130.041 266.422 130.721 266.73 131.198 267.345C131.683 267.96 131.856 268.879 131.718 270.101H127.051C127.077 270.794 127.285 271.323 127.675 271.687C128.073 272.051 128.628 272.233 129.339 272.233C129.685 272.233 130.019 272.159 130.34 272.012C130.66 271.856 130.933 271.618 131.159 271.297L131.757 271.843C131.176 272.684 130.348 273.104 129.274 273.104ZM129.17 267.189C128.771 267.189 128.42 267.284 128.117 267.475C127.822 267.666 127.584 267.926 127.402 268.255C127.22 268.576 127.107 268.935 127.064 269.334H130.886C130.92 268.58 130.773 268.034 130.444 267.696C130.114 267.358 129.69 267.189 129.17 267.189ZM136.985 267.436C136.898 267.41 136.811 267.393 136.725 267.384C136.638 267.375 136.543 267.371 136.439 267.371C135.685 267.371 135.134 267.817 134.788 268.71C134.441 269.594 134.268 271.024 134.268 273H133.332V268.853L133.319 266.539H134.268L134.203 268.84C134.411 267.965 134.723 267.345 135.139 266.981C135.555 266.608 136.001 266.422 136.478 266.422C136.616 266.422 136.738 266.431 136.842 266.448C136.954 266.457 137.05 266.478 137.128 266.513L136.985 267.436ZM141.463 273V272.35C142.339 271.631 143.058 270.981 143.621 270.4C144.185 269.811 144.627 269.273 144.947 268.788C145.277 268.294 145.506 267.843 145.636 267.436C145.766 267.02 145.831 266.63 145.831 266.266C145.831 265.729 145.675 265.304 145.363 264.992C145.051 264.68 144.631 264.524 144.102 264.524C143.01 264.524 142.269 265.122 141.879 266.318L141.125 265.954C141.325 265.278 141.684 264.723 142.204 264.29C142.724 263.857 143.37 263.64 144.141 263.64C144.653 263.64 145.108 263.74 145.506 263.939C145.914 264.138 146.23 264.429 146.455 264.81C146.689 265.191 146.811 265.655 146.819 266.201C146.828 266.79 146.698 267.393 146.429 268.008C146.161 268.623 145.727 269.278 145.129 269.971C144.54 270.656 143.751 271.397 142.763 272.194H147.066V273H141.463ZM151.845 273.104C150.84 273.104 150.06 272.727 149.505 271.973C148.959 271.219 148.686 270.079 148.686 268.554C148.686 267.566 148.825 266.704 149.102 265.967C149.38 265.23 149.77 264.658 150.272 264.251C150.775 263.844 151.36 263.64 152.027 263.64C152.972 263.64 153.717 264.039 154.263 264.836C154.809 265.625 155.082 266.747 155.082 268.203C155.082 269.226 154.944 270.105 154.666 270.842C154.398 271.57 154.016 272.129 153.522 272.519C153.037 272.909 152.478 273.104 151.845 273.104ZM151.845 272.207C152.53 272.207 153.08 271.873 153.496 271.206C153.912 270.53 154.12 269.52 154.12 268.177C154.12 266.998 153.934 266.097 153.561 265.473C153.189 264.84 152.677 264.524 152.027 264.524C151.317 264.524 150.745 264.875 150.311 265.577C149.878 266.279 149.661 267.271 149.661 268.554C149.661 269.793 149.852 270.712 150.233 271.31C150.615 271.908 151.152 272.207 151.845 272.207ZM157.417 273V272.194H159.484V265.07L157.599 266.344L157.131 265.655L159.913 263.77H160.459V272.194H162.461V273H157.417ZM167.175 263.64C168.233 263.64 169.03 264.013 169.567 264.758C170.113 265.495 170.386 266.569 170.386 267.982C170.386 268.996 170.248 269.889 169.97 270.66C169.693 271.431 169.286 272.034 168.748 272.467C168.22 272.892 167.574 273.104 166.811 273.104C165.468 273.104 164.567 272.419 164.107 271.05L164.939 270.673C165.13 271.228 165.381 271.626 165.693 271.869C166.014 272.103 166.408 272.22 166.876 272.22C167.604 272.22 168.207 271.886 168.683 271.219C169.169 270.543 169.411 269.507 169.411 268.112V267.969C169.186 268.454 168.848 268.84 168.397 269.126C167.955 269.403 167.448 269.542 166.876 269.542C166.348 269.542 165.875 269.425 165.459 269.191C165.052 268.957 164.731 268.632 164.497 268.216C164.263 267.8 164.146 267.319 164.146 266.773C164.146 266.166 164.276 265.629 164.536 265.161C164.805 264.684 165.165 264.312 165.615 264.043C166.075 263.774 166.595 263.64 167.175 263.64ZM167.201 264.472C166.586 264.472 166.088 264.676 165.706 265.083C165.325 265.482 165.134 266.015 165.134 266.682C165.134 267.297 165.308 267.791 165.654 268.164C166.001 268.528 166.465 268.71 167.045 268.71C167.453 268.71 167.817 268.619 168.137 268.437C168.467 268.255 168.722 268.004 168.904 267.683C169.095 267.354 169.19 266.972 169.19 266.539C169.19 265.906 169.013 265.404 168.657 265.031C168.302 264.658 167.817 264.472 167.201 264.472Z" fill="white"/>
</g>
</g>
<defs>
<filter id="filter0_d_0_210" x="0" y="0" width="504" height="360" filterUnits="userSpaceOnUse" color-interpolation-filters="sRGB">
<feFlood flood-opacity="0" result="BackgroundImageFix"/>
<feColorMatrix in="SourceAlpha" type="matrix" values="0 0 0 0 0 0 0 0 0 0 0 0 0 0 0 0 0 0 127 0" result="hardAlpha"/>
<feOffset dy="2"/>
<feGaussianBlur stdDeviation="5"/>
<feColorMatrix type="matrix" values="0 0 0 0 0 0 0 0 0 0 0 0 0 0 0 0 0 0 0.1 0"/>
<feBlend mode="normal" in2="BackgroundImageFix" result="effect1_dropShadow_0_210"/>
<feBlend mode="normal" in="SourceGraphic" in2="effect1_dropShadow_0_210" result="shape"/>
</filter>
<filter id="filter1_d_0_210" x="-70" y="-52" width="643.933" height="500" filterUnits="userSpaceOnUse" color-interpolation-filters="sRGB">
<feFlood flood-opacity="0" result="BackgroundImageFix"/>
<feColorMatrix in="SourceAlpha" type="matrix" values="0 0 0 0 0 0 0 0 0 0 0 0 0 0 0 0 0 0 127 0" result="hardAlpha"/>
<feOffset dy="20"/>
<feGaussianBlur stdDeviation="40"/>
<feColorMatrix type="matrix" values="0 0 0 0 0 0 0 0 0 0 0 0 0 0 0 0 0 0 0.2 0"/>
<feBlend mode="normal" in2="BackgroundImageFix" result="effect1_dropShadow_0_210"/>
<feBlend mode="normal" in="SourceGraphic" in2="effect1_dropShadow_0_210" result="shape"/>
</filter>
<clipPath id="clip0_0_210">
<rect width="484" height="340" fill="white" transform="translate(10 8)"/>
</clipPath>
<clipPath id="clip1_0_210">
<rect width="390" height="60" fill="white" transform="translate(58 260)"/>
</clipPath>
</defs>
</svg>
