<svg width="40" height="40" viewBox="0 0 40 40" fill="none" xmlns="http://www.w3.org/2000/svg">
    <circle cx="20" cy="20" r="19.5" stroke="#DBDBDB"/>
    <mask id="mask0_109_376" style="mask-type:luminance" maskUnits="userSpaceOnUse" x="14" y="14" width="13" height="13">
    <path fill-rule="evenodd" clip-rule="evenodd" d="M14 14H27V27H14V14Z" fill="white"/>
    </mask>
    <g mask="url(#mask0_109_376)">
    <path fill-rule="evenodd" clip-rule="evenodd" d="M24.7497 17.0303C24.7497 17.4611 24.4005 17.8103 23.9697 17.8103C23.539 17.8103 23.1897 17.4611 23.1897 17.0303C23.1897 16.5995 23.539 16.2503 23.9697 16.2503C24.4005 16.2503 24.7497 16.5995 24.7497 17.0303ZM20.5 22.6667C19.3034 22.6667 18.3333 21.6966 18.3333 20.5C18.3333 19.3034 19.3034 18.3333 20.5 18.3333C21.6966 18.3333 22.6667 19.3034 22.6667 20.5C22.6667 21.6966 21.6966 22.6667 20.5 22.6667ZM20.5 17.1622C18.6566 17.1622 17.1622 18.6566 17.1622 20.5C17.1622 22.3434 18.6566 23.8379 20.5 23.8379C22.3434 23.8379 23.8379 22.3434 23.8379 20.5C23.8379 18.6566 22.3434 17.1622 20.5 17.1622ZM20.5 14C18.7347 14 18.5134 14.0075 17.8201 14.0391C17.1282 14.0707 16.6557 14.1805 16.2422 14.3413C15.8148 14.5074 15.4523 14.7296 15.091 15.091C14.7296 15.4523 14.5074 15.8148 14.3413 16.2423C14.1806 16.6557 14.0707 17.1282 14.0391 17.8201C14.0075 18.5134 14 18.7347 14 20.5C14 22.2653 14.0075 22.4867 14.0391 23.1799C14.0707 23.8718 14.1806 24.3443 14.3413 24.7578C14.5074 25.1851 14.7296 25.5477 15.091 25.909C15.4523 26.2704 15.8148 26.4927 16.2422 26.6588C16.6557 26.8195 17.1282 26.9293 17.8201 26.9609C18.5134 26.9925 18.7347 27 20.5 27C22.2653 27 22.4867 26.9925 23.1799 26.9609C23.8718 26.9293 24.3443 26.8195 24.7578 26.6588C25.1852 26.4927 25.5477 26.2704 25.9091 25.909C26.2704 25.5477 26.4926 25.1852 26.6588 24.7578C26.8195 24.3443 26.9293 23.8718 26.9609 23.1799C26.9925 22.4867 27 22.2653 27 20.5C27 18.7347 26.9925 18.5134 26.9609 17.8201C26.9293 17.1282 26.8195 16.6557 26.6588 16.2423C26.4926 15.8148 26.2704 15.4523 25.9091 15.091C25.5477 14.7296 25.1852 14.5074 24.7578 14.3413C24.3443 14.1805 23.8718 14.0707 23.1799 14.0391C22.4867 14.0075 22.2653 14 20.5 14ZM20.5 15.1712C22.2356 15.1712 22.4412 15.1778 23.1266 15.2091C23.7603 15.238 24.1045 15.3439 24.3336 15.4329C24.6369 15.5508 24.8535 15.6917 25.0809 15.9191C25.3084 16.1465 25.4492 16.3631 25.5672 16.6665C25.6562 16.8956 25.7621 17.2398 25.791 17.8735C25.8222 18.5589 25.8288 18.7644 25.8288 20.5C25.8288 22.2356 25.8222 22.4411 25.791 23.1265C25.7621 23.7603 25.6562 24.1045 25.5672 24.3335C25.4492 24.6369 25.3084 24.8534 25.0809 25.0809C24.8535 25.3083 24.6369 25.4493 24.3336 25.5671C24.1045 25.6561 23.7603 25.762 23.1266 25.791C22.4413 25.8222 22.2357 25.8288 20.5 25.8288C18.7643 25.8288 18.5587 25.8222 17.8734 25.791C17.2397 25.762 16.8955 25.6561 16.6665 25.5671C16.3631 25.4493 16.1465 25.3083 15.9191 25.0809C15.6917 24.8534 15.5508 24.6369 15.4329 24.3335C15.3439 24.1045 15.238 23.7603 15.2091 23.1266C15.1778 22.4411 15.1712 22.2356 15.1712 20.5C15.1712 18.7644 15.1778 18.5589 15.2091 17.8735C15.238 17.2398 15.3439 16.8956 15.4329 16.6665C15.5508 16.3631 15.6917 16.1465 15.9191 15.9191C16.1465 15.6917 16.3631 15.5508 16.6665 15.4329C16.8955 15.3439 17.2397 15.238 17.8734 15.2091C18.5588 15.1778 18.7645 15.1712 20.5 15.1712Z" fill="#DBDBDB"/>
    </g>
    </svg>
    