<svg width="13" height="12" viewBox="0 0 13 12" fill="none" xmlns="http://www.w3.org/2000/svg">
<path fill-rule="evenodd" clip-rule="evenodd" d="M4.0885 11.28C8.99405 11.28 11.6772 7.21681 11.6772 3.69361C11.6772 3.57794 11.6772 3.46293 11.6694 3.34856C12.1914 2.97168 12.6418 2.50382 13 1.96839C12.5138 2.18412 11.9971 2.32578 11.4686 2.38816C12.025 2.05481 12.4417 1.53108 12.6412 0.913119C12.1173 1.22372 11.5446 1.4427 10.9473 1.56032C9.9372 0.486851 8.24785 0.434867 7.1734 1.44465C6.48115 2.09575 6.1867 3.06655 6.40185 3.99251C4.2575 3.88465 2.2594 2.87226 0.9048 1.20683C0.19695 2.4252 0.559 3.98342 1.73095 4.76577C1.3065 4.75343 0.89115 4.63906 0.52 4.43243V4.46622C0.52065 5.73527 1.4157 6.82823 2.6598 7.0797C2.2672 7.18692 1.8551 7.20252 1.456 7.12519C1.80505 8.21165 2.8067 8.95567 3.94745 8.97712C3.003 9.71919 1.83625 10.1221 0.63505 10.1208C0.42315 10.1201 0.21125 10.1078 0 10.0824C1.22005 10.8648 2.639 11.28 4.0885 11.2781" fill="#DBDBDB"/>
</svg>
